<?xml version="1.0" encoding="utf-8"?>
<!-- Generator: Adobe Illustrator 16.0.0, SVG Export Plug-In . SVG Version: 6.00 Build 0)  -->
<!DOCTYPE svg PUBLIC "-//W3C//DTD SVG 1.1//EN" "http://www.w3.org/Graphics/SVG/1.1/DTD/svg11.dtd">
<svg version="1.1" id="Layer_1" xmlns="http://www.w3.org/2000/svg" xmlns:xlink="http://www.w3.org/1999/xlink" x="0px" y="0px"
	 width="533px" height="334px" viewBox="53.5 157.5 533 334" enable-background="new 53.5 157.5 533 334" xml:space="preserve">
<g>
	<g>
		<g>
			<g>
				<path id="bfGhSZYJV" fill="#9CAFE5" d="M64,340.76c0,0,0.01-0.01,0.02-0.029C64.01,340.75,64,340.76,64,340.76z"/>
			</g>
			<g>
				<g>
					<path id="bfGhSZYJV_1_" fill-opacity="0" stroke="#000000" stroke-opacity="0" d="M64,340.76c0,0,0.01-0.01,0.02-0.029
						C64.01,340.75,64,340.76,64,340.76z"/>
				</g>
			</g>
		</g>
		<g>
			<g>
				
					<linearGradient id="drW22Xgt8_2_" gradientUnits="userSpaceOnUse" x1="325.9766" y1="314.1606" x2="314.8666" y2="202.361" gradientTransform="matrix(1 0 0 -1 8.3398 616.04)">
					<stop  offset="0" style="stop-color:#FFFFFF"/>
					<stop  offset="1" style="stop-color:#f5f5f5"/>
				</linearGradient>
				<path id="drW22Xgt8" fill="url(#drW22Xgt8_2_)" d="M439.46,473.36c124.75,11.04,149.71-13.591,130.97-32.24
					c-18.739-18.66-56.989-32.479-77.14-83.3c-1.64-31.61-6.9-64.19-14.771-90.74c-3.39-11.47-7.279-21.82-11.569-30.48
					c-0.24-0.5-0.48-0.98-0.73-1.46c-2.109-4.13-3.92-6.92-4.35-7.69c-0.74-1.17-1.351-2.05-1.49-2.28
					c-5.77-8.5-12.1-14-18.82-15.42c-1.38-0.29-2.399-0.53-2.67-0.59c-1.979-0.45-3.84-0.92-5.58-1.41
					c-7.329-2.03-12.72-4.38-17.67-7.58c-0.76-0.5-1.38-0.93-1.529-1.03c-1.25-0.86-2.471-1.78-3.7-2.77l0,0
					c-6.771-5.43-13.73-12.89-25.061-23.81c-25.069-24.17-44.14,9.87-98.07,10.45c-19.34,0.21-34.5,5.57-46.7,14.25
					c-9.04,6.42-16.45,14.64-22.75,23.94v0.01c-8.91,13.16-15.58,28.46-21.41,43.76c-15.52,40.74-72.79,76.57-115.08,109.671
					c-42.28,33.1,32.12,24.389,89.41,38.33c57.29,13.939-80.3,16.26-60.62,47.039C129.82,490.78,314.72,462.33,439.46,473.36z"/>
			</g>
			<g>
				<g>
					<path id="drW22Xgt8_1_" fill-opacity="0" stroke="#000000" stroke-opacity="0" d="M439.46,473.36
						c124.75,11.04,149.71-13.591,130.97-32.24c-18.739-18.66-56.989-32.479-77.14-83.3c-1.64-31.61-6.9-64.19-14.771-90.74
						c-3.39-11.47-7.279-21.82-11.569-30.48c-0.24-0.5-0.48-0.98-0.73-1.46c-2.109-4.13-3.92-6.92-4.35-7.69
						c-0.74-1.17-1.351-2.05-1.49-2.28c-5.77-8.5-12.1-14-18.82-15.42c-1.38-0.29-2.399-0.53-2.67-0.59
						c-1.979-0.45-3.84-0.92-5.58-1.41c-7.329-2.03-12.72-4.38-17.67-7.58c-0.76-0.5-1.38-0.93-1.529-1.03
						c-1.25-0.86-2.471-1.78-3.7-2.77l0,0c-6.771-5.43-13.73-12.89-25.061-23.81c-25.069-24.17-44.14,9.87-98.07,10.45
						c-19.34,0.21-34.5,5.57-46.7,14.25c-9.04,6.42-16.45,14.64-22.75,23.94v0.01c-8.91,13.16-15.58,28.46-21.41,43.76
						c-15.52,40.74-72.79,76.57-115.08,109.671c-42.28,33.1,32.12,24.389,89.41,38.33c57.29,13.939-80.3,16.26-60.62,47.039
						C129.82,490.78,314.72,462.33,439.46,473.36z"/>
				</g>
			</g>
		</g>
		<g>
			<g>
				<path id="dfQLPlVrj" fill="#e8e8e8" d="M442.86,262.81L442.86,262.81c-0.69,22.18-1.08,34.51-1.16,36.98l0,0
					c13.18,0.41,20.51,0.64,21.97,0.69l0,0c0.7-22.19,1.09-34.52,1.16-36.98l0,0C451.65,263.08,444.33,262.85,442.86,262.81z"/>
			</g>
			<g>
				<g>
					<path id="dfQLPlVrj_1_" fill-opacity="0" stroke="#000000" stroke-opacity="0" d="M442.86,262.81L442.86,262.81
						c-0.69,22.18-1.08,34.51-1.16,36.98l0,0c13.18,0.41,20.51,0.64,21.97,0.69l0,0c0.7-22.19,1.09-34.52,1.16-36.98l0,0
						C451.65,263.08,444.33,262.85,442.86,262.81z"/>
				</g>
			</g>
		</g>
		<g>
			<g>
				<path id="c4uNHQ2OpF" fill="#e8e8e8" d="M466.4,263.55L466.4,263.55c-0.7,22.18-1.091,34.51-1.17,36.98l0,0
					c10.729,0.33,16.689,0.52,17.88,0.56l0,0c0.699-22.19,1.09-34.52,1.17-36.98l0,0C473.55,263.77,467.59,263.58,466.4,263.55z"/>
			</g>
			<g>
				<g>
					<path id="c4uNHQ2OpF_1_" fill-opacity="0" stroke="#000000" stroke-opacity="0" d="M466.4,263.55L466.4,263.55
						c-0.7,22.18-1.091,34.51-1.17,36.98l0,0c10.729,0.33,16.689,0.52,17.88,0.56l0,0c0.699-22.19,1.09-34.52,1.17-36.98l0,0
						C473.55,263.77,467.59,263.58,466.4,263.55z"/>
				</g>
			</g>
		</g>
		<g>
			<g>
				<path id="bndBplxij" fill="#e8e8e8" d="M465.19,301.95L465.19,301.95c-0.631,20-0.98,31.11-1.051,33.329l0,0
					c10.73,0.33,16.69,0.521,17.88,0.561l0,0c0.631-20,0.98-31.1,1.051-33.32l0,0C472.34,302.18,466.38,301.99,465.19,301.95z"/>
			</g>
			<g>
				<g>
					<path id="bndBplxij_1_" fill-opacity="0" stroke="#000000" stroke-opacity="0" d="M465.19,301.95L465.19,301.95
						c-0.631,20-0.98,31.11-1.051,33.329l0,0c10.73,0.33,16.69,0.521,17.88,0.561l0,0c0.631-20,0.98-31.1,1.051-33.32l0,0
						C472.34,302.18,466.38,301.99,465.19,301.95z"/>
				</g>
			</g>
		</g>
		<g>
			<g>
				<path id="aEcfaeHDz" fill="#e8e8e8" d="M441.66,301.21L441.66,301.21c-0.63,20-0.98,31.101-1.05,33.33l0,0
					c13.18,0.41,20.51,0.64,21.97,0.69l0,0c0.63-20,0.979-31.101,1.05-33.331l0,0C450.44,301.49,443.12,301.26,441.66,301.21z"/>
			</g>
			<g>
				<g>
					<path id="aEcfaeHDz_1_" fill-opacity="0" stroke="#000000" stroke-opacity="0" d="M441.66,301.21L441.66,301.21
						c-0.63,20-0.98,31.101-1.05,33.33l0,0c13.18,0.41,20.51,0.64,21.97,0.69l0,0c0.63-20,0.979-31.101,1.05-33.331l0,0
						C450.44,301.49,443.12,301.26,441.66,301.21z"/>
				</g>
			</g>
		</g>
		<g>
			<g>
				<path id="g3wp7pZoBq" fill="#e8e8e8" d="M444.1,223.12l21.971,0.69c0.189-5.87,0.29-9.13,0.31-9.78
					c-5.77-8.5-12.09-14-18.82-15.42c-0.909-0.19-1.8-0.39-2.659-0.59L444.1,223.12z"/>
			</g>
			<g>
				<g>
					<path id="g3wp7pZoBq_1_" fill-opacity="0" stroke="#000000" stroke-opacity="0" d="M444.1,223.12l21.971,0.69
						c0.189-5.87,0.29-9.13,0.31-9.78c-5.77-8.5-12.09-14-18.82-15.42c-0.909-0.19-1.8-0.39-2.659-0.59L444.1,223.12z"/>
				</g>
			</g>
		</g>
		<g>
			<g>
				<path id="i4o1PJYag" fill="#e8e8e8" d="M467.63,223.86c2.76,0.09,4.28,0.14,4.59,0.15c-1.399-2.75-2.85-5.32-4.35-7.69
					L467.63,223.86z"/>
			</g>
			<g>
				<g>
					<path id="i4o1PJYag_1_" fill-opacity="0" stroke="#000000" stroke-opacity="0" d="M467.63,223.86
						c2.76,0.09,4.28,0.14,4.59,0.15c-1.399-2.75-2.85-5.32-4.35-7.69L467.63,223.86z"/>
				</g>
			</g>
		</g>
		<g>
			<g>
				<path id="a7z9FnzOl" fill="#e8e8e8" d="M466.54,258.62l17.88,0.56c0.061-1.94,0.1-3.02,0.1-3.23
					c-3.39-11.48-7.279-21.83-11.569-30.49c-0.351-0.01-2.141-0.07-5.36-0.17L466.54,258.62z"/>
			</g>
			<g>
				<g>
					<path id="a7z9FnzOl_1_" fill-opacity="0" stroke="#000000" stroke-opacity="0" d="M466.54,258.62l17.88,0.56
						c0.061-1.94,0.1-3.02,0.1-3.23c-3.39-11.48-7.279-21.83-11.569-30.49c-0.351-0.01-2.141-0.07-5.36-0.17L466.54,258.62z"/>
				</g>
			</g>
		</g>
		<g>
			<g>
				<path id="b2aicTsbT0" fill="#e8e8e8" d="M444.06,224.56L444.06,224.56c-0.619,19.99-0.97,31.1-1.04,33.32l0,0
					c13.181,0.42,20.5,0.65,21.971,0.69l0,0c0.63-19.99,0.979-31.1,1.05-33.32l0,0C452.85,224.84,445.53,224.61,444.06,224.56z"/>
			</g>
			<g>
				<g>
					<path id="b2aicTsbT0_1_" fill-opacity="0" stroke="#000000" stroke-opacity="0" d="M444.06,224.56L444.06,224.56
						c-0.619,19.99-0.97,31.1-1.04,33.32l0,0c13.181,0.42,20.5,0.65,21.971,0.69l0,0c0.63-19.99,0.979-31.1,1.05-33.32l0,0
						C452.85,224.84,445.53,224.61,444.06,224.56z"/>
				</g>
			</g>
		</g>
		<g>
			<g>
				<path id="k47mQZLl9" fill="#e8e8e8" d="M395.83,261.33L395.83,261.33c-0.7,22.19-1.09,34.51-1.17,36.98l0,0
					c13.189,0.41,20.51,0.64,21.979,0.69l0,0c0.69-22.19,1.08-34.52,1.16-36.98l0,0C404.62,261.6,397.29,261.37,395.83,261.33z"/>
			</g>
			<g>
				<g>
					<path id="k47mQZLl9_1_" fill-opacity="0" stroke="#000000" stroke-opacity="0" d="M395.83,261.33L395.83,261.33
						c-0.7,22.19-1.09,34.51-1.17,36.98l0,0c13.189,0.41,20.51,0.64,21.979,0.69l0,0c0.69-22.19,1.08-34.52,1.16-36.98l0,0
						C404.62,261.6,397.29,261.37,395.83,261.33z"/>
				</g>
			</g>
		</g>
		<g>
			<g>
				<path id="g1sszBxeQy" fill="#e8e8e8" d="M419.36,262.07L419.36,262.07c-0.7,22.18-1.08,34.51-1.16,36.98l0,0
					c10.729,0.33,16.689,0.52,17.88,0.56l0,0c0.689-22.19,1.08-34.52,1.16-36.98l0,0C426.51,262.29,420.55,262.1,419.36,262.07z"/>
			</g>
			<g>
				<g>
					<path id="g1sszBxeQy_1_" fill-opacity="0" stroke="#000000" stroke-opacity="0" d="M419.36,262.07L419.36,262.07
						c-0.7,22.18-1.08,34.51-1.16,36.98l0,0c10.729,0.33,16.689,0.52,17.88,0.56l0,0c0.689-22.19,1.08-34.52,1.16-36.98l0,0
						C426.51,262.29,420.55,262.1,419.36,262.07z"/>
				</g>
			</g>
		</g>
		<g>
			<g>
				<path id="e2DHiqQTmL" fill="#e8e8e8" d="M418.15,300.48L418.15,300.48c-0.631,19.99-0.971,31.1-1.04,33.32l0,0
					c10.72,0.341,16.68,0.521,17.88,0.56l0,0c0.62-19.989,0.97-31.1,1.04-33.319l0,0C425.3,300.7,419.35,300.51,418.15,300.48z"/>
			</g>
			<g>
				<g>
					<path id="e2DHiqQTmL_1_" fill-opacity="0" stroke="#000000" stroke-opacity="0" d="M418.15,300.48L418.15,300.48
						c-0.631,19.99-0.971,31.1-1.04,33.32l0,0c10.72,0.341,16.68,0.521,17.88,0.56l0,0c0.62-19.989,0.97-31.1,1.04-33.319l0,0
						C425.3,300.7,419.35,300.51,418.15,300.48z"/>
				</g>
			</g>
		</g>
		<g>
			<g>
				<path id="a1HsidarwW" fill="#e8e8e8" d="M394.62,299.74L394.62,299.74c-0.63,19.99-0.98,31.1-1.05,33.32l0,0
					c13.189,0.41,20.51,0.64,21.97,0.689l0,0c0.63-19.99,0.979-31.1,1.05-33.32l0,0C403.41,300.01,396.08,299.78,394.62,299.74z"/>
			</g>
			<g>
				<g>
					<path id="a1HsidarwW_1_" fill-opacity="0" stroke="#000000" stroke-opacity="0" d="M394.62,299.74L394.62,299.74
						c-0.63,19.99-0.98,31.1-1.05,33.32l0,0c13.189,0.41,20.51,0.64,21.97,0.689l0,0c0.63-19.99,0.979-31.1,1.05-33.32l0,0
						C403.41,300.01,396.08,299.78,394.62,299.74z"/>
				</g>
			</g>
		</g>
		<g>
			<g>
				<path id="cbgrVvkYx" fill="#e8e8e8" d="M397.07,221.64l21.97,0.69c0.64-20.59,1.01-32.03,1.08-34.32
					c-1.25-0.87-2.47-1.79-3.7-2.77l0,0l-18.189-0.58L397.07,221.64z"/>
			</g>
			<g>
				<g>
					<path id="cbgrVvkYx_1_" fill-opacity="0" stroke="#000000" stroke-opacity="0" d="M397.07,221.64l21.97,0.69
						c0.64-20.59,1.01-32.03,1.08-34.32c-1.25-0.87-2.47-1.79-3.7-2.77l0,0l-18.189-0.58L397.07,221.64z"/>
				</g>
			</g>
		</g>
		<g>
			<g>
				<path id="eqDsUr6bC" fill="#e8e8e8" d="M420.6,222.38l17.881,0.57c0.5-15.8,0.77-24.57,0.829-26.33
					c-7.329-2.03-12.71-4.38-17.659-7.58C421.51,193.48,421.16,204.6,420.6,222.38z"/>
			</g>
			<g>
				<g>
					<path id="eqDsUr6bC_1_" fill-opacity="0" stroke="#000000" stroke-opacity="0" d="M420.6,222.38l17.881,0.57
						c0.5-15.8,0.77-24.57,0.829-26.33c-7.329-2.03-12.71-4.38-17.659-7.58C421.51,193.48,421.16,204.6,420.6,222.38z"/>
				</g>
			</g>
		</g>
		<g>
			<g>
				<path id="azeUfZhlA" fill="#e8e8e8" d="M420.56,223.82L420.56,223.82c-0.63,20-0.979,31.1-1.04,33.32l0,0
					c10.721,0.34,16.681,0.53,17.87,0.57l0,0c0.63-20,0.98-31.1,1.051-33.33l0,0C427.71,224.05,421.75,223.86,420.56,223.82z"/>
			</g>
			<g>
				<g>
					<path id="azeUfZhlA_1_" fill-opacity="0" stroke="#000000" stroke-opacity="0" d="M420.56,223.82L420.56,223.82
						c-0.63,20-0.979,31.1-1.04,33.32l0,0c10.721,0.34,16.681,0.53,17.87,0.57l0,0c0.63-20,0.98-31.1,1.051-33.33l0,0
						C427.71,224.05,421.75,223.86,420.56,223.82z"/>
				</g>
			</g>
		</g>
		<g>
			<g>
				<path id="d9zb2ZRipq" fill="#e8e8e8" d="M397.03,223.08L397.03,223.08c-0.63,19.99-0.98,31.1-1.05,33.32l0,0
					c13.18,0.42,20.51,0.65,21.97,0.69l0,0c0.63-19.99,0.979-31.1,1.05-33.32l0,0C405.82,223.36,398.49,223.13,397.03,223.08z"/>
			</g>
			<g>
				<g>
					<path id="d9zb2ZRipq_1_" fill-opacity="0" stroke="#000000" stroke-opacity="0" d="M397.03,223.08L397.03,223.08
						c-0.63,19.99-0.98,31.1-1.05,33.32l0,0c13.18,0.42,20.51,0.65,21.97,0.69l0,0c0.63-19.99,0.979-31.1,1.05-33.32l0,0
						C405.82,223.36,398.49,223.13,397.03,223.08z"/>
				</g>
			</g>
		</g>
		<g>
			<g>
				<path id="cS4j8cyQT" fill="#e8e8e8" d="M269.27,262.81L269.27,262.81c-0.7,22.19-1.09,34.52-1.16,36.98l0,0
					c13.18,0.42,20.5,0.65,21.97,0.69l0,0c0.69-22.19,1.08-34.51,1.16-36.98l0,0C278.06,263.09,270.73,262.86,269.27,262.81z"/>
			</g>
			<g>
				<g>
					<path id="cS4j8cyQT_1_" fill-opacity="0" stroke="#000000" stroke-opacity="0" d="M269.27,262.81L269.27,262.81
						c-0.7,22.19-1.09,34.52-1.16,36.98l0,0c13.18,0.42,20.5,0.65,21.97,0.69l0,0c0.69-22.19,1.08-34.51,1.16-36.98l0,0
						C278.06,263.09,270.73,262.86,269.27,262.81z"/>
				</g>
			</g>
		</g>
		<g>
			<g>
				<path id="g3foT9e5w3" fill="#e8e8e8" d="M293,264.17L293,264.17c-0.66,22.2-1.03,34.53-1.11,37l0,0
					c10.74,0.32,16.7,0.5,17.89,0.54l0,0c0.67-22.2,1.04-34.53,1.109-37l0,0C300.16,264.39,294.2,264.21,293,264.17z"/>
			</g>
			<g>
				<g>
					<path id="g3foT9e5w3_1_" fill-opacity="0" stroke="#000000" stroke-opacity="0" d="M293,264.17L293,264.17
						c-0.66,22.2-1.03,34.53-1.11,37l0,0c10.74,0.32,16.7,0.5,17.89,0.54l0,0c0.67-22.2,1.04-34.53,1.109-37l0,0
						C300.16,264.39,294.2,264.21,293,264.17z"/>
				</g>
			</g>
		</g>
		<g>
			<g>
				<path id="a4X6ozo77T" fill="#e8e8e8" d="M291.6,301.96L291.6,301.96c-0.63,19.99-0.98,31.101-1.05,33.319l0,0
					c10.73,0.341,16.69,0.531,17.88,0.561l0,0c0.63-19.99,0.971-31.1,1.04-33.32l0,0C298.75,302.19,292.79,302,291.6,301.96z"/>
			</g>
			<g>
				<g>
					<path id="a4X6ozo77T_1_" fill-opacity="0" stroke="#000000" stroke-opacity="0" d="M291.6,301.96L291.6,301.96
						c-0.63,19.99-0.98,31.101-1.05,33.319l0,0c10.73,0.341,16.69,0.531,17.88,0.561l0,0c0.63-19.99,0.971-31.1,1.04-33.32l0,0
						C298.75,302.19,292.79,302,291.6,301.96z"/>
				</g>
			</g>
		</g>
		<g>
			<g>
				<path id="a5HVXdUNE" fill="#e8e8e8" d="M268.06,301.22L268.06,301.22c-0.63,19.99-0.98,31.101-1.05,33.32l0,0
					c13.19,0.42,20.51,0.649,21.98,0.69l0,0c0.62-19.99,0.97-31.101,1.04-33.32l0,0C276.85,301.5,269.53,301.27,268.06,301.22z"/>
			</g>
			<g>
				<g>
					<path id="a5HVXdUNE_1_" fill-opacity="0" stroke="#000000" stroke-opacity="0" d="M268.06,301.22L268.06,301.22
						c-0.63,19.99-0.98,31.101-1.05,33.32l0,0c13.19,0.42,20.51,0.649,21.98,0.69l0,0c0.62-19.99,0.97-31.101,1.04-33.32l0,0
						C276.85,301.5,269.53,301.27,268.06,301.22z"/>
				</g>
			</g>
		</g>
		<g>
			<g>
				<path id="a4WGMsDFB8" fill="#e8e8e8" d="M271.68,186.16L271.68,186.16c-0.7,22.19-1.09,34.51-1.16,36.98l0,0
					c13.18,0.41,20.5,0.64,21.97,0.69l0,0c0.69-22.19,1.08-34.52,1.16-36.98l0,0C280.47,186.43,273.14,186.2,271.68,186.16z"/>
			</g>
			<g>
				<g>
					<path id="a4WGMsDFB8_1_" fill-opacity="0" stroke="#000000" stroke-opacity="0" d="M271.68,186.16L271.68,186.16
						c-0.7,22.19-1.09,34.51-1.16,36.98l0,0c13.18,0.41,20.5,0.64,21.97,0.69l0,0c0.69-22.19,1.08-34.52,1.16-36.98l0,0
						C280.47,186.43,273.14,186.2,271.68,186.16z"/>
				</g>
			</g>
		</g>
		<g>
			<g>
				<path id="d1yf2ZPSBY" fill="#e8e8e8" d="M295.21,186.9L295.21,186.9c-0.7,22.18-1.08,34.51-1.16,36.98l0,0
					c10.73,0.33,16.69,0.52,17.88,0.56l0,0c0.7-22.19,1.08-34.52,1.16-36.98l0,0C302.36,187.12,296.4,186.93,295.21,186.9z"/>
			</g>
			<g>
				<g>
					<path id="d1yf2ZPSBY_1_" fill-opacity="0" stroke="#000000" stroke-opacity="0" d="M295.21,186.9L295.21,186.9
						c-0.7,22.18-1.08,34.51-1.16,36.98l0,0c10.73,0.33,16.69,0.52,17.88,0.56l0,0c0.7-22.19,1.08-34.52,1.16-36.98l0,0
						C302.36,187.12,296.4,186.93,295.21,186.9z"/>
				</g>
			</g>
		</g>
		<g>
			<g>
				<path id="b2r1LTeixs" fill="#e8e8e8" d="M294,225.31L294,225.31c-0.62,19.99-0.97,31.1-1.04,33.32l0,0
					c10.72,0.34,16.68,0.52,17.88,0.56l0,0c0.62-19.99,0.97-31.1,1.04-33.32l0,0C301.16,225.53,295.2,225.34,294,225.31z"/>
			</g>
			<g>
				<g>
					<path id="b2r1LTeixs_1_" fill-opacity="0" stroke="#000000" stroke-opacity="0" d="M294,225.31L294,225.31
						c-0.62,19.99-0.97,31.1-1.04,33.32l0,0c10.72,0.34,16.68,0.52,17.88,0.56l0,0c0.62-19.99,0.97-31.1,1.04-33.32l0,0
						C301.16,225.53,295.2,225.34,294,225.31z"/>
				</g>
			</g>
		</g>
		<g>
			<g>
				<path id="b46mHrfWSj" fill="#e8e8e8" d="M270.47,224.57L270.47,224.57c-0.63,19.99-0.98,31.1-1.05,33.32l0,0
					c13.19,0.41,20.51,0.64,21.97,0.69l0,0c0.63-19.99,0.98-31.1,1.05-33.32l0,0C279.26,224.84,271.94,224.61,270.47,224.57z"/>
			</g>
			<g>
				<g>
					<path id="b46mHrfWSj_1_" fill-opacity="0" stroke="#000000" stroke-opacity="0" d="M270.47,224.57L270.47,224.57
						c-0.63,19.99-0.98,31.1-1.05,33.32l0,0c13.19,0.41,20.51,0.64,21.97,0.69l0,0c0.63-19.99,0.98-31.1,1.05-33.32l0,0
						C279.26,224.84,271.94,224.61,270.47,224.57z"/>
				</g>
			</g>
		</g>
		<g>
			<g>
				<path id="a1tD29LzIK" fill="#e8e8e8" d="M222.23,261.33L222.23,261.33c-0.69,22.19-1.08,34.52-1.16,36.98l0,0
					c13.18,0.42,20.51,0.65,21.97,0.69l0,0c0.7-22.18,1.09-34.51,1.16-36.98l0,0C231.02,261.61,223.7,261.38,222.23,261.33z"/>
			</g>
			<g>
				<g>
					<path id="a1tD29LzIK_1_" fill-opacity="0" stroke="#000000" stroke-opacity="0" d="M222.23,261.33L222.23,261.33
						c-0.69,22.19-1.08,34.52-1.16,36.98l0,0c13.18,0.42,20.51,0.65,21.97,0.69l0,0c0.7-22.18,1.09-34.51,1.16-36.98l0,0
						C231.02,261.61,223.7,261.38,222.23,261.33z"/>
				</g>
			</g>
		</g>
		<g>
			<g>
				<path id="diSedrwwe" fill="#e8e8e8" d="M245.77,262.07L245.77,262.07c-0.7,22.19-1.09,34.52-1.17,36.98l0,0
					c10.73,0.34,16.69,0.53,17.88,0.56l0,0c0.7-22.18,1.09-34.51,1.17-36.98l0,0C252.92,262.3,246.96,262.11,245.77,262.07z"/>
			</g>
			<g>
				<g>
					<path id="diSedrwwe_1_" fill-opacity="0" stroke="#000000" stroke-opacity="0" d="M245.77,262.07L245.77,262.07
						c-0.7,22.19-1.09,34.52-1.17,36.98l0,0c10.73,0.34,16.69,0.53,17.88,0.56l0,0c0.7-22.18,1.09-34.51,1.17-36.98l0,0
						C252.92,262.3,246.96,262.11,245.77,262.07z"/>
				</g>
			</g>
		</g>
		<g>
			<g>
				<path id="c3w6MxdiZJ" fill="#e8e8e8" d="M244.56,300.48L244.56,300.48c-0.63,20-0.98,31.1-1.05,33.331l0,0
					c10.73,0.33,16.69,0.52,17.88,0.56l0,0c0.63-20,0.98-31.1,1.05-33.33l0,0C251.71,300.71,245.75,300.52,244.56,300.48z"/>
			</g>
			<g>
				<g>
					<path id="c3w6MxdiZJ_1_" fill-opacity="0" stroke="#000000" stroke-opacity="0" d="M244.56,300.48L244.56,300.48
						c-0.63,20-0.98,31.1-1.05,33.331l0,0c10.73,0.33,16.69,0.52,17.88,0.56l0,0c0.63-20,0.98-31.1,1.05-33.33l0,0
						C251.71,300.71,245.75,300.52,244.56,300.48z"/>
				</g>
			</g>
		</g>
		<g>
			<g>
				<path id="bza8zbONm" fill="#e8e8e8" d="M221.03,299.74L221.03,299.74c-0.63,20-0.98,31.1-1.05,33.32l0,0
					c13.18,0.42,20.5,0.649,21.97,0.699l0,0c0.63-20,0.98-31.11,1.05-33.33l0,0C229.81,300.02,222.49,299.79,221.03,299.74z"/>
			</g>
			<g>
				<g>
					<path id="bza8zbONm_1_" fill-opacity="0" stroke="#000000" stroke-opacity="0" d="M221.03,299.74L221.03,299.74
						c-0.63,20-0.98,31.1-1.05,33.32l0,0c13.18,0.42,20.5,0.649,21.97,0.699l0,0c0.63-20,0.98-31.11,1.05-33.33l0,0
						C229.81,300.02,222.49,299.79,221.03,299.74z"/>
				</g>
			</g>
		</g>
		<g>
			<g>
				<path id="dEmnS5GDh" fill="#e8e8e8" d="M223.47,221.64l21.97,0.69c0.69-21.72,1.07-33.8,1.14-36.21
					c-9.03,6.42-16.44,14.64-22.74,23.94l0,0L223.47,221.64z"/>
			</g>
			<g>
				<g>
					<path id="dEmnS5GDh_1_" fill-opacity="0" stroke="#000000" stroke-opacity="0" d="M223.47,221.64l21.97,0.69
						c0.69-21.72,1.07-33.8,1.14-36.21c-9.03,6.42-16.44,14.64-22.74,23.94l0,0L223.47,221.64z"/>
				</g>
			</g>
		</g>
		<g>
			<g>
				<path id="f1dCfdHnI" fill="#e8e8e8" d="M248.24,186.06L248.24,186.06c-0.66,22.2-1.03,34.54-1.11,37l0,0
					c10.74,0.32,16.7,0.5,17.89,0.54l0,0c0.67-22.2,1.04-34.53,1.11-37l0,0C255.4,186.28,249.44,186.1,248.24,186.06z"/>
			</g>
			<g>
				<g>
					<path id="f1dCfdHnI_1_" fill-opacity="0" stroke="#000000" stroke-opacity="0" d="M248.24,186.06L248.24,186.06
						c-0.66,22.2-1.03,34.54-1.11,37l0,0c10.74,0.32,16.7,0.5,17.89,0.54l0,0c0.67-22.2,1.04-34.53,1.11-37l0,0
						C255.4,186.28,249.44,186.1,248.24,186.06z"/>
				</g>
			</g>
		</g>
		<g>
			<g>
				<path id="a19eHKtBUc" fill="#e8e8e8" d="M246.97,223.83L246.97,223.83c-0.63,19.99-0.98,31.1-1.05,33.32l0,0
					c10.73,0.34,16.69,0.53,17.88,0.56l0,0c0.63-19.99,0.98-31.1,1.05-33.32l0,0C254.12,224.05,248.16,223.87,246.97,223.83z"/>
			</g>
			<g>
				<g>
					<path id="a19eHKtBUc_1_" fill-opacity="0" stroke="#000000" stroke-opacity="0" d="M246.97,223.83L246.97,223.83
						c-0.63,19.99-0.98,31.1-1.05,33.32l0,0c10.73,0.34,16.69,0.53,17.88,0.56l0,0c0.63-19.99,0.98-31.1,1.05-33.32l0,0
						C254.12,224.05,248.16,223.87,246.97,223.83z"/>
				</g>
			</g>
		</g>
		<g>
			<g>
				<path id="km6hd3rcM" fill="#e8e8e8" d="M223.44,223.09L223.44,223.09c-0.63,19.99-0.98,31.1-1.05,33.32l0,0
					c13.18,0.41,20.5,0.64,21.97,0.69l0,0c0.63-19.99,0.98-31.1,1.05-33.32l0,0C232.22,223.36,224.9,223.13,223.44,223.09z"/>
			</g>
			<g>
				<g>
					<path id="km6hd3rcM_1_" fill-opacity="0" stroke="#000000" stroke-opacity="0" d="M223.44,223.09L223.44,223.09
						c-0.63,19.99-0.98,31.1-1.05,33.32l0,0c13.18,0.41,20.5,0.64,21.97,0.69l0,0c0.63-19.99,0.98-31.1,1.05-33.32l0,0
						C232.22,223.36,224.9,223.13,223.44,223.09z"/>
				</g>
			</g>
		</g>
		<g>
			<g>
				<path id="g4GZJreDF" fill="#e8e8e8" d="M89.23,172.76c-0.47,0-0.7,0.23-0.7,0.7c0,62.89,0,97.83,0,104.82
					c0,0.47,0.23,0.7,0.7,0.7c69.88,0,108.7,0,116.46,0c0.47,0,0.7-0.23,0.7-0.7c0-62.89,0-97.83,0-104.82c0-0.47-0.23-0.7-0.7-0.7
					C135.81,172.76,96.99,172.76,89.23,172.76z"/>
			</g>
			<g>
				<g>
					<path id="g4GZJreDF_1_" fill-opacity="0" stroke="#000000" stroke-opacity="0" d="M89.23,172.76c-0.47,0-0.7,0.23-0.7,0.7
						c0,62.89,0,97.83,0,104.82c0,0.47,0.23,0.7,0.7,0.7c69.88,0,108.7,0,116.46,0c0.47,0,0.7-0.23,0.7-0.7
						c0-62.89,0-97.83,0-104.82c0-0.47-0.23-0.7-0.7-0.7C135.81,172.76,96.99,172.76,89.23,172.76z"/>
				</g>
			</g>
		</g>
		<g>
			<g>
				<path id="b54ZZ9u26L" fill="#B2C3FB" d="M88.53,184.62h117.86c0-6.63,0-10.31,0-11.04c0-0.46-0.36-0.82-0.82-0.82
					c-11.62,0-104.6,0-116.22,0c-0.45,0-0.82,0.36-0.82,0.82C88.53,175.05,88.53,178.73,88.53,184.62z"/>
			</g>
			<g>
				<g>
					<path id="b54ZZ9u26L_1_" fill-opacity="0" stroke="#000000" stroke-opacity="0" d="M88.53,184.62h117.86
						c0-6.63,0-10.31,0-11.04c0-0.46-0.36-0.82-0.82-0.82c-11.62,0-104.6,0-116.22,0c-0.45,0-0.82,0.36-0.82,0.82
						C88.53,175.05,88.53,178.73,88.53,184.62z"/>
				</g>
			</g>
		</g>
		<g>
			<g>
				<path id="b4ot5k6ZfA" fill="#FFFFFF" d="M199.2,177.78c0.52,0,0.93,0.41,0.93,0.93c0,0.51-0.41,0.93-0.93,0.93
					c-0.51,0-0.93-0.42-0.93-0.93C198.27,178.19,198.69,177.78,199.2,177.78z"/>
			</g>
			<g>
				<g>
					<path id="b4ot5k6ZfA_1_" fill-opacity="0" stroke="#000000" stroke-opacity="0" d="M199.2,177.78c0.52,0,0.93,0.41,0.93,0.93
						c0,0.51-0.41,0.93-0.93,0.93c-0.51,0-0.93-0.42-0.93-0.93C198.27,178.19,198.69,177.78,199.2,177.78z"/>
				</g>
			</g>
		</g>
		<g>
			<g>
				<path id="h2YXbb9HQk" fill="#FFFFFF" d="M193.62,179.64c0.52,0,0.93-0.42,0.93-0.93c0-0.52-0.41-0.93-0.93-0.93l0,0
					c-0.51,0-0.93,0.41-0.93,0.93C192.69,179.22,193.11,179.64,193.62,179.64z"/>
			</g>
			<g>
				<g>
					<path id="h2YXbb9HQk_1_" fill-opacity="0" stroke="#000000" stroke-opacity="0" d="M193.62,179.64c0.52,0,0.93-0.42,0.93-0.93
						c0-0.52-0.41-0.93-0.93-0.93l0,0c-0.51,0-0.93,0.41-0.93,0.93C192.69,179.22,193.11,179.64,193.62,179.64z"/>
				</g>
			</g>
		</g>
		<g>
			<g>
				<path id="b3qakalT6w" fill="#FFFFFF" d="M188.05,177.78c0.51,0,0.92,0.41,0.92,0.93c0,0.51-0.41,0.93-0.92,0.93
					c-0.52,0-0.93-0.42-0.93-0.93C187.12,178.19,187.53,177.78,188.05,177.78z"/>
			</g>
			<g>
				<g>
					<path id="b3qakalT6w_1_" fill-opacity="0" stroke="#000000" stroke-opacity="0" d="M188.05,177.78c0.51,0,0.92,0.41,0.92,0.93
						c0,0.51-0.41,0.93-0.92,0.93c-0.52,0-0.93-0.42-0.93-0.93C187.12,178.19,187.53,177.78,188.05,177.78z"/>
				</g>
			</g>
		</g>
		<g>
			<g>
				<path id="a3MloLavTg" fill="#FFFFFF" d="M102.7,194.18L102.7,194.18c0,0.97,0,1.5,0,1.61l0,0c26.7,0,41.54,0,44.51,0l0,0
					c0-0.97,0-1.5,0-1.61l0,0C120.5,194.18,105.67,194.18,102.7,194.18z"/>
			</g>
			<g>
				<g>
					<path id="a3MloLavTg_1_" fill-opacity="0" stroke="#000000" stroke-opacity="0" d="M102.7,194.18L102.7,194.18
						c0,0.97,0,1.5,0,1.61l0,0c26.7,0,41.54,0,44.51,0l0,0c0-0.97,0-1.5,0-1.61l0,0C120.5,194.18,105.67,194.18,102.7,194.18z"/>
				</g>
			</g>
		</g>
		<g>
			<g>
				<path id="cp9HsPbFh" fill="#FFFFFF" d="M102.7,200.81L102.7,200.81c0,0.96,0,1.5,0,1.61l0,0c26.7,0,41.54,0,44.51,0l0,0
					c0-0.97,0-1.5,0-1.61l0,0C120.5,200.81,105.67,200.81,102.7,200.81z"/>
			</g>
			<g>
				<g>
					<path id="cp9HsPbFh_1_" fill-opacity="0" stroke="#000000" stroke-opacity="0" d="M102.7,200.81L102.7,200.81
						c0,0.96,0,1.5,0,1.61l0,0c26.7,0,41.54,0,44.51,0l0,0c0-0.97,0-1.5,0-1.61l0,0C120.5,200.81,105.67,200.81,102.7,200.81z"/>
				</g>
			</g>
		</g>
		<g>
			<g>
				<path id="cmRgxRK6z" fill="#FFFFFF" d="M102.7,207.44L102.7,207.44c0,0.96,0,1.5,0,1.61l0,0c26.7,0,41.54,0,44.51,0l0,0
					c0-0.97,0-1.51,0-1.61l0,0C120.5,207.44,105.67,207.44,102.7,207.44z"/>
			</g>
			<g>
				<g>
					<path id="cmRgxRK6z_1_" fill-opacity="0" stroke="#000000" stroke-opacity="0" d="M102.7,207.44L102.7,207.44
						c0,0.96,0,1.5,0,1.61l0,0c26.7,0,41.54,0,44.51,0l0,0c0-0.97,0-1.51,0-1.61l0,0C120.5,207.44,105.67,207.44,102.7,207.44z"/>
				</g>
			</g>
		</g>
		<g>
			<g>
				<path id="b2ryoDT2Z" fill="#FFFFFF" d="M102.7,214.06L102.7,214.06c0,0.97,0,1.51,0,1.62l0,0c26.7,0,41.54,0,44.51,0l0,0
					c0-0.97,0-1.51,0-1.62l0,0C120.5,214.06,105.67,214.06,102.7,214.06z"/>
			</g>
			<g>
				<g>
					<path id="b2ryoDT2Z_1_" fill-opacity="0" stroke="#000000" stroke-opacity="0" d="M102.7,214.06L102.7,214.06
						c0,0.97,0,1.51,0,1.62l0,0c26.7,0,41.54,0,44.51,0l0,0c0-0.97,0-1.51,0-1.62l0,0C120.5,214.06,105.67,214.06,102.7,214.06z"/>
				</g>
			</g>
		</g>
		<g>
			<g>
				<path id="a4AlX033hm" fill="#FFFFFF" d="M124.95,220.69L124.95,220.69c0,0.97,0,1.51,0,1.62l0,0c13.36,0,20.77,0,22.26,0l0,0
					c0-0.97,0-1.51,0-1.62l0,0C133.85,220.69,126.44,220.69,124.95,220.69z"/>
			</g>
			<g>
				<g>
					<path id="a4AlX033hm_1_" fill-opacity="0" stroke="#000000" stroke-opacity="0" d="M124.95,220.69L124.95,220.69
						c0,0.97,0,1.51,0,1.62l0,0c13.36,0,20.77,0,22.26,0l0,0c0-0.97,0-1.51,0-1.62l0,0C133.85,220.69,126.44,220.69,124.95,220.69z"
						/>
				</g>
			</g>
		</g>
		<g>
			<g>
				<path id="artze350O" fill="#FFFFFF" d="M194.48,235.34L194.48,235.34c0-0.96,0-1.5,0-1.61l0,0c-26.7,0-41.54,0-44.51,0l0,0
					c0,0.97,0,1.51,0,1.61l0,0C176.68,235.34,191.51,235.34,194.48,235.34z"/>
			</g>
			<g>
				<g>
					<path id="artze350O_1_" fill-opacity="0" stroke="#000000" stroke-opacity="0" d="M194.48,235.34L194.48,235.34
						c0-0.96,0-1.5,0-1.61l0,0c-26.7,0-41.54,0-44.51,0l0,0c0,0.97,0,1.51,0,1.61l0,0C176.68,235.34,191.51,235.34,194.48,235.34z"
						/>
				</g>
			</g>
		</g>
		<g>
			<g>
				<path id="aiONjNGpl" fill="#FFFFFF" d="M194.48,241.97L194.48,241.97c0-0.97,0-1.5,0-1.61l0,0c-26.7,0-41.54,0-44.51,0l0,0
					c0,0.97,0,1.5,0,1.61l0,0C176.68,241.97,191.51,241.97,194.48,241.97z"/>
			</g>
			<g>
				<g>
					<path id="aiONjNGpl_1_" fill-opacity="0" stroke="#000000" stroke-opacity="0" d="M194.48,241.97L194.48,241.97
						c0-0.97,0-1.5,0-1.61l0,0c-26.7,0-41.54,0-44.51,0l0,0c0,0.97,0,1.5,0,1.61l0,0C176.68,241.97,191.51,241.97,194.48,241.97z"/>
				</g>
			</g>
		</g>
		<g>
			<g>
				<path id="ddrNFytsF" fill="#FFFFFF" d="M194.48,248.6L194.48,248.6c0-0.97,0-1.5,0-1.61l0,0c-26.7,0-41.54,0-44.51,0l0,0
					c0,0.97,0,1.5,0,1.61l0,0C176.68,248.6,191.51,248.6,194.48,248.6z"/>
			</g>
			<g>
				<g>
					<path id="ddrNFytsF_1_" fill-opacity="0" stroke="#000000" stroke-opacity="0" d="M194.48,248.6L194.48,248.6
						c0-0.97,0-1.5,0-1.61l0,0c-26.7,0-41.54,0-44.51,0l0,0c0,0.97,0,1.5,0,1.61l0,0C176.68,248.6,191.51,248.6,194.48,248.6z"/>
				</g>
			</g>
		</g>
		<g>
			<g>
				<path id="bk3TjwGVJ" fill="#FFFFFF" d="M194.48,255.23L194.48,255.23c0-0.97,0-1.5,0-1.61l0,0c-26.7,0-41.54,0-44.51,0l0,0
					c0,0.96,0,1.5,0,1.61l0,0C176.68,255.23,191.51,255.23,194.48,255.23z"/>
			</g>
			<g>
				<g>
					<path id="bk3TjwGVJ_1_" fill-opacity="0" stroke="#000000" stroke-opacity="0" d="M194.48,255.23L194.48,255.23
						c0-0.97,0-1.5,0-1.61l0,0c-26.7,0-41.54,0-44.51,0l0,0c0,0.96,0,1.5,0,1.61l0,0C176.68,255.23,191.51,255.23,194.48,255.23z"/>
				</g>
			</g>
		</g>
		<g>
			<g>
				<path id="a1OHJMeqKr" fill="#FFFFFF" d="M172.23,261.86L172.23,261.86c0-0.97,0-1.51,0-1.61l0,0c-13.36,0-20.77,0-22.26,0l0,0
					c0,0.96,0,1.5,0,1.61l0,0C163.32,261.86,170.74,261.86,172.23,261.86z"/>
			</g>
			<g>
				<g>
					<path id="a1OHJMeqKr_1_" fill-opacity="0" stroke="#000000" stroke-opacity="0" d="M172.23,261.86L172.23,261.86
						c0-0.97,0-1.51,0-1.61l0,0c-13.36,0-20.77,0-22.26,0l0,0c0,0.96,0,1.5,0,1.61l0,0C163.32,261.86,170.74,261.86,172.23,261.86z"
						/>
				</g>
			</g>
		</g>
		<g>
			<g>
				<path id="e3q0ha9IOS" fill="#FFFFFF" d="M104.2,231.95L104.2,231.95c0,19.01,0,29.58,0,31.69l0,0c22.85,0,35.54,0,38.08,0l0,0
					c0-19.01,0-29.58,0-31.69l0,0C119.43,231.95,106.74,231.95,104.2,231.95z"/>
			</g>
			<g>
				<g>
					<path id="e3q0ha9IOS_1_" fill-opacity="0" stroke="#000000" stroke-opacity="0" d="M104.2,231.95L104.2,231.95
						c0,19.01,0,29.58,0,31.69l0,0c22.85,0,35.54,0,38.08,0l0,0c0-19.01,0-29.58,0-31.69l0,0
						C119.43,231.95,106.74,231.95,104.2,231.95z"/>
				</g>
			</g>
		</g>
		<g>
			<g>
				<path id="a1TdLvP2Y6" fill="#B2C3FB" d="M131.09,246.18l-7.85,5.44l-12.35-10.45l-6.69,6.63v15.84h38.08l0.07-9.57l0,0
					L131.09,246.18z"/>
			</g>
			<g>
				<g>
					<path id="a1TdLvP2Y6_1_" fill-opacity="0" stroke="#000000" stroke-opacity="0" d="M131.09,246.18l-7.85,5.44l-12.35-10.45
						l-6.69,6.63v15.84h38.08l0.07-9.57l0,0L131.09,246.18z"/>
				</g>
			</g>
		</g>
		<g>
			<g>
				<path id="f3qhQZ1SDi" fill="#e8e8e8" d="M122.58,237.98c1.76,0,3.19,1.42,3.19,3.19c0,1.76-1.43,3.19-3.19,3.19
					c-1.76,0-3.19-1.43-3.19-3.19C119.39,239.4,120.82,237.98,122.58,237.98z"/>
			</g>
			<g>
				<g>
					<path id="f3qhQZ1SDi_1_" fill-opacity="0" stroke="#000000" stroke-opacity="0" d="M122.58,237.98c1.76,0,3.19,1.42,3.19,3.19
						c0,1.76-1.43,3.19-3.19,3.19c-1.76,0-3.19-1.43-3.19-3.19C119.39,239.4,120.82,237.98,122.58,237.98z"/>
				</g>
			</g>
		</g>
		<g>
			<g>
				<path id="iiCPQ02qu" fill="#FFFFFF" d="M156.39,193.2L156.39,193.2c0,19.02,0,29.58,0,31.69l0,0c22.86,0,35.55,0,38.09,0l0,0
					c0-19.01,0-29.58,0-31.69l0,0C171.63,193.2,158.93,193.2,156.39,193.2z"/>
			</g>
			<g>
				<g>
					<path id="iiCPQ02qu_1_" fill-opacity="0" stroke="#000000" stroke-opacity="0" d="M156.39,193.2L156.39,193.2
						c0,19.02,0,29.58,0,31.69l0,0c22.86,0,35.55,0,38.09,0l0,0c0-19.01,0-29.58,0-31.69l0,0
						C171.63,193.2,158.93,193.2,156.39,193.2z"/>
				</g>
			</g>
		</g>
		<g>
			<g>
				<path id="a24R0lwLvb" fill="#B2C3FB" d="M183.29,207.44l-7.85,5.43l-12.35-10.45l-6.7,6.63v15.84h38.09l0.06-9.57l0,0
					L183.29,207.44z"/>
			</g>
			<g>
				<g>
					<path id="a24R0lwLvb_1_" fill-opacity="0" stroke="#000000" stroke-opacity="0" d="M183.29,207.44l-7.85,5.43l-12.35-10.45
						l-6.7,6.63v15.84h38.09l0.06-9.57l0,0L183.29,207.44z"/>
				</g>
			</g>
		</g>
		<g>
			<g>
				<path id="htiN50jDk" fill="#e8e8e8" d="M174.78,199.23c1.76,0,3.19,1.43,3.19,3.19c0,1.76-1.43,3.19-3.19,3.19
					c-1.76,0-3.19-1.43-3.19-3.19C171.59,200.66,173.02,199.23,174.78,199.23z"/>
			</g>
			<g>
				<g>
					<path id="htiN50jDk_1_" fill-opacity="0" stroke="#000000" stroke-opacity="0" d="M174.78,199.23c1.76,0,3.19,1.43,3.19,3.19
						c0,1.76-1.43,3.19-3.19,3.19c-1.76,0-3.19-1.43-3.19-3.19C171.59,200.66,173.02,199.23,174.78,199.23z"/>
				</g>
			</g>
		</g>
		<g>
			<g>
				<path id="eh3enZ1U9" fill="#000D3A" d="M237,412.92L237,412.92c0,2.689,0,4.189,0,4.49l0,0c109.51,0,170.34,0,182.51,0l0,0
					c0-2.689,0-4.189,0-4.49l0,0C310.01,412.92,249.17,412.92,237,412.92z"/>
			</g>
			<g>
				<g>
					<path id="eh3enZ1U9_1_" fill-opacity="0" stroke="#000000" stroke-opacity="0" d="M237,412.92L237,412.92
						c0,2.689,0,4.189,0,4.49l0,0c109.51,0,170.34,0,182.51,0l0,0c0-2.689,0-4.189,0-4.49l0,0
						C310.01,412.92,249.17,412.92,237,412.92z"/>
				</g>
			</g>
		</g>
		<g>
			<g>
				<path id="b2BIkXKS" fill="#D7E0FF" d="M440.66,332.73c-1.41,4.58-8.44,27.5-21.101,68.75H237.18
					c-12.65-41.25-19.68-64.17-21.09-68.75c0,0-15.94-54.53,112.28-54.53C456.6,278.2,418.2,321.82,440.66,332.73z"/>
			</g>
			<g>
				<g>
					<path id="b2BIkXKS_1_" fill-opacity="0" stroke="#000000" stroke-opacity="0" d="M440.66,332.73
						c-1.41,4.58-8.44,27.5-21.101,68.75H237.18c-12.65-41.25-19.68-64.17-21.09-68.75c0,0-15.94-54.53,112.28-54.53
						C456.6,278.2,418.2,321.82,440.66,332.73z"/>
				</g>
			</g>
		</g>
		<g>
			<g>
				<path id="a1ZfU6SiJ1" fill="#000D3A" d="M425.29,440.13h-2.48l-8.34-22.72h5.04l0,0L425.29,440.13z"/>
			</g>
			<g>
				<g>
					<path id="a1ZfU6SiJ1_1_" fill-opacity="0" stroke="#000000" stroke-opacity="0" d="M425.29,440.13h-2.48l-8.34-22.72h5.04l0,0
						L425.29,440.13z"/>
				</g>
			</g>
		</g>
		<g>
			<g>
				<path id="d3aY13Hmcv" fill="#000D3A" d="M231.22,440.13h2.49l8.33-22.72H237l0,0L231.22,440.13z"/>
			</g>
			<g>
				<g>
					<path id="d3aY13Hmcv_1_" fill-opacity="0" stroke="#000000" stroke-opacity="0" d="M231.22,440.13h2.49l8.33-22.72H237l0,0
						L231.22,440.13z"/>
				</g>
			</g>
		</g>
		<g>
			<g>
				<path id="cv9Rm4a5h" fill="#B2C3FB" d="M417.8,406.55l15.67-27.579H226.54l8.56,27.579l0,0H417.8z"/>
			</g>
			<g>
				<g>
					<path id="cv9Rm4a5h_1_" fill-opacity="0" stroke="#000000" stroke-opacity="0" d="M417.8,406.55l15.67-27.579H226.54
						l8.56,27.579l0,0H417.8z"/>
				</g>
			</g>
		</g>
		<g>
			<g>
				<path id="aMI9hL8rV" fill="#CDD9FC" d="M232.72,415.17c-14.98-35.25-23.3-54.82-24.97-58.74c-2.95-4.699-1.53-10.9,3.17-13.85
					l0,0c4.59-2.891,10.66-1.5,13.55,3.1l0,0c1.28,3.311,7.69,19.84,19.23,49.61h168.92c10.63-29.21,16.53-45.44,17.71-48.69
					c2.89-4.59,8.95-5.979,13.55-3.09l0,0l0,0c4.7,2.95,6.12,9.15,3.17,13.85l0,0c-1.569,3.851-9.38,23.121-23.439,57.801l0,0
					L232.72,415.17z"/>
			</g>
			<g>
				<g>
					<path id="aMI9hL8rV_1_" fill-opacity="0" stroke="#000000" stroke-opacity="0" d="M232.72,415.17
						c-14.98-35.25-23.3-54.82-24.97-58.74c-2.95-4.699-1.53-10.9,3.17-13.85l0,0c4.59-2.891,10.66-1.5,13.55,3.1l0,0
						c1.28,3.311,7.69,19.84,19.23,49.61h168.92c10.63-29.21,16.53-45.44,17.71-48.69c2.89-4.59,8.95-5.979,13.55-3.09l0,0l0,0
						c4.7,2.95,6.12,9.15,3.17,13.85l0,0c-1.569,3.851-9.38,23.121-23.439,57.801l0,0L232.72,415.17z"/>
				</g>
			</g>
		</g>
		<g>
			<g>
				<path id="e9g6OiJUt" fill="#FFC1C2" d="M223.77,286.48l5.92,26.79c1.39,0.18,8.38,1.09,20.94,2.74
					c-1.29,1.07-2.01,1.66-2.16,1.78c0,0-18.09,3.13-22.96,0.35c0,0-5.91-19.83-7.3-24.01c-1.39-4.17-2.78-15.65-2.78-15.65
					C217.1,280.08,222.38,278.13,223.77,286.48z"/>
			</g>
			<g>
				<g>
					<path id="e9g6OiJUt_1_" fill-opacity="0" stroke="#000000" stroke-opacity="0" d="M223.77,286.48l5.92,26.79
						c1.39,0.18,8.38,1.09,20.94,2.74c-1.29,1.07-2.01,1.66-2.16,1.78c0,0-18.09,3.13-22.96,0.35c0,0-5.91-19.83-7.3-24.01
						c-1.39-4.17-2.78-15.65-2.78-15.65C217.1,280.08,222.38,278.13,223.77,286.48z"/>
				</g>
			</g>
		</g>
		<g>
			<g>
				<path id="crw2hC82U" fill="#152D54" d="M196.62,269.94c0,0-6.16-2.06-4.11-6.17c0,0-4.93-4.51-1.64-8.21c0,0-3.7-5.75,0-8.22
					c0,0,1.64-8.21,6.16-6.57c0,0,0.83-5.34,7.4-2.47c0,0,6.57-4.93,8.63-1.23c0,0,8.21-0.41,8.21,3.7c0,0,6.57,2.46,4.11,7.81
					c0,0,3.29,5.75,0.41,8.62c0,0,2.88,5.34-1.23,7.81c0,0,0.82,5.75-3.29,6.16c0,0-4.93,5.34-8.63,2.47c0-0.01-8.49,3.08-10.41-0.1
					C201.11,272.82,196.62,273.63,196.62,269.94z"/>
			</g>
			<g>
				<g>
					<path id="crw2hC82U_1_" fill-opacity="0" stroke="#000000" stroke-opacity="0" d="M196.62,269.94c0,0-6.16-2.06-4.11-6.17
						c0,0-4.93-4.51-1.64-8.21c0,0-3.7-5.75,0-8.22c0,0,1.64-8.21,6.16-6.57c0,0,0.83-5.34,7.4-2.47c0,0,6.57-4.93,8.63-1.23
						c0,0,8.21-0.41,8.21,3.7c0,0,6.57,2.46,4.11,7.81c0,0,3.29,5.75,0.41,8.62c0,0,2.88,5.34-1.23,7.81c0,0,0.82,5.75-3.29,6.16
						c0,0-4.93,5.34-8.63,2.47c0-0.01-8.49,3.08-10.41-0.1C201.11,272.82,196.62,273.63,196.62,269.94z"/>
				</g>
			</g>
		</g>
		<g>
			<g>
				<path id="c2XQqUWgbg" fill="#FFC1C2" d="M200.55,414.83c0,0,3.79-1.16,5.52,3.029c-0.85,0.961-7.7,8.61-8.56,9.561
					c0,0-4.7,7.07-4.03,8.49c0,0,3.1,5.16-0.21,2.54c0,0-4.42-3.5-3.66-5.601l1.96-4.739c-0.49,0.51-4.43,4.58-4.93,5.09
					c0,0,4.36-10.04,9.1-8.08"/>
			</g>
			<g>
				<g>
					<path id="c2XQqUWgbg_1_" fill-opacity="0" stroke="#000000" stroke-opacity="0" d="M200.55,414.83c0,0,3.79-1.16,5.52,3.029
						c-0.85,0.961-7.7,8.61-8.56,9.561c0,0-4.7,7.07-4.03,8.49c0,0,3.1,5.16-0.21,2.54c0,0-4.42-3.5-3.66-5.601l1.96-4.739
						c-0.49,0.51-4.43,4.58-4.93,5.09c0,0,4.36-10.04,9.1-8.08"/>
				</g>
			</g>
		</g>
		<g>
			<g>
				<path id="aSMp4Xh2" fill="#F05831" d="M195.01,423.82c0.41,0.729,0.63,1.14,0.68,1.22c0,0-7.85,10.27-1.77,10.5l1.83,6.93
					c-0.58-0.239-3.49-1.42-8.71-3.55l-5.71-6.78l7.98-10.75L195.01,423.82z"/>
			</g>
			<g>
				<g>
					<path id="aSMp4Xh2_1_" fill-opacity="0" stroke="#000000" stroke-opacity="0" d="M195.01,423.82
						c0.41,0.729,0.63,1.14,0.68,1.22c0,0-7.85,10.27-1.77,10.5l1.83,6.93c-0.58-0.239-3.49-1.42-8.71-3.55l-5.71-6.78l7.98-10.75
						L195.01,423.82z"/>
				</g>
			</g>
		</g>
		<g>
			<g>
				<path id="bTcpq428a" fill="#FFC1C2" d="M200.82,419.359c0,0,2.43-3.129,6.26-0.689c-0.15,1.27-1.36,11.46-1.51,12.74
					c0,0,0.21,8.479,1.58,9.27c0,0,5.5,2.431,1.28,2.19c0,0-5.63-0.33-6.21-2.48l-1.12-5c-0.11,0.69-1,6.29-1.11,6.99
					c0,0-2.21-10.72,2.8-11.84"/>
			</g>
			<g>
				<g>
					<path id="bTcpq428a_1_" fill-opacity="0" stroke="#000000" stroke-opacity="0" d="M200.82,419.359c0,0,2.43-3.129,6.26-0.689
						c-0.15,1.27-1.36,11.46-1.51,12.74c0,0,0.21,8.479,1.58,9.27c0,0,5.5,2.431,1.28,2.19c0,0-5.63-0.33-6.21-2.48l-1.12-5
						c-0.11,0.69-1,6.29-1.11,6.99c0,0-2.21-10.72,2.8-11.84"/>
				</g>
			</g>
		</g>
		<g>
			<g>
				<path id="b1mO0O2hck" fill="#F05831" d="M201.45,429.9c0.75,0.369,1.17,0.569,1.25,0.609c0,0-0.51,12.92,4.59,9.61l5.48,4.62
					c-0.61,0.14-3.66,0.84-9.16,2.1l-8.57-2.27l0.36-13.38L201.45,429.9z"/>
			</g>
			<g>
				<g>
					<path id="b1mO0O2hck_1_" fill-opacity="0" stroke="#000000" stroke-opacity="0" d="M201.45,429.9
						c0.75,0.369,1.17,0.569,1.25,0.609c0,0-0.51,12.92,4.59,9.61l5.48,4.62c-0.61,0.14-3.66,0.84-9.16,2.1l-8.57-2.27l0.36-13.38
						L201.45,429.9z"/>
				</g>
			</g>
		</g>
		<g>
			<g>
				<path id="c3jJDj6muT" fill="#FFC1C2" d="M188.09,351.17c1.21,2.02,1.74,3.54,1.05,5.221c-0.16,0.369-0.8,0.209-0.8,0.209
					s-3.58-3.35-2.47-7.879c0.05-2.811,0.45-25.24,0.5-28.041c0,0-8.61-39.149,2.35-34.46c0,0.01,7.83,7.84,4.7,12.53
					C192.36,309.23,192.79,350.38,188.09,351.17z"/>
			</g>
			<g>
				<g>
					<path id="c3jJDj6muT_1_" fill-opacity="0" stroke="#000000" stroke-opacity="0" d="M188.09,351.17
						c1.21,2.02,1.74,3.54,1.05,5.221c-0.16,0.369-0.8,0.209-0.8,0.209s-3.58-3.35-2.47-7.879c0.05-2.811,0.45-25.24,0.5-28.041
						c0,0-8.61-39.149,2.35-34.46c0,0.01,7.83,7.84,4.7,12.53C192.36,309.23,192.79,350.38,188.09,351.17z"/>
				</g>
			</g>
		</g>
		<g>
			<g>
				<path id="aj2MchMt6" fill="#3B58A8" d="M187.94,348.08c0,0,8.61,67.34,12.53,76.74c0,0,7.05,0.779,7.83-0.78
					c0,0,0.78-75.96-0.78-80.649c0,0,14.87-10.181,14.09-19.58c-0.78-9.391-25.84-3.98-25.84-3.98
					C194.2,325.48,187.16,326.939,187.94,348.08z"/>
			</g>
			<g>
				<g>
					<path id="aj2MchMt6_1_" fill-opacity="0" stroke="#000000" stroke-opacity="0" d="M187.94,348.08c0,0,8.61,67.34,12.53,76.74
						c0,0,7.05,0.779,7.83-0.78c0,0,0.78-75.96-0.78-80.649c0,0,14.87-10.181,14.09-19.58c-0.78-9.391-25.84-3.98-25.84-3.98
						C194.2,325.48,187.16,326.939,187.94,348.08z"/>
				</g>
			</g>
		</g>
		<g>
			<g>
				<path id="a2uYxx7Daq" fill="#7799F2" d="M209.4,385.41l-13.11,32.21l7.31,9.399l6.61-11.14L209.4,385.41"/>
			</g>
			<g>
				<g>
					<path id="a2uYxx7Daq_1_" fill-opacity="0" stroke="#000000" stroke-opacity="0" d="M209.4,385.41l-13.11,32.21l7.31,9.399
						l6.61-11.14L209.4,385.41"/>
				</g>
			</g>
		</g>
		<g>
			<g>
				<path id="a1iu3AEpmU" fill="#7799F2" d="M209.59,377.79c0-0.05,0.04-0.101,0.1-0.101c0.05,0,0.1,0.051,0.1,0.101
					c0,0.06-0.05,0.101-0.1,0.101C209.63,377.891,209.59,377.85,209.59,377.79z"/>
			</g>
			<g>
				<g>
					<path id="a1iu3AEpmU_1_" fill-opacity="0" stroke="#000000" stroke-opacity="0" d="M209.59,377.79c0-0.05,0.04-0.101,0.1-0.101
						c0.05,0,0.1,0.051,0.1,0.101c0,0.06-0.05,0.101-0.1,0.101C209.63,377.891,209.59,377.85,209.59,377.79z"/>
				</g>
			</g>
		</g>
		<g>
			<g>
				<path id="bwH8uRudc" fill="#7799F2" d="M195.84,334.91c-2.05,2.79-5.06,5.779-8.85,4.99c-1.64-0.34-3.12-1.371-3.64-3.01
					c-0.01-0.031,0.04-0.051,0.05-0.021c0.51,1.63,1.98,2.64,3.61,2.979c1.79,0.381,3.54-0.129,5.04-1.129
					c1.62-1.08,2.88-2.621,4-4.181c1.17-1.63,2.2-3.351,3.07-5.16c1.03-2.12,1.74-4.39,2.11-6.72c0-0.03,0.05-0.02,0.05,0.01
					C200.59,327.15,198.5,331.279,195.84,334.91z"/>
			</g>
			<g>
				<g>
					<path id="bwH8uRudc_1_" fill-opacity="0" stroke="#000000" stroke-opacity="0" d="M195.84,334.91
						c-2.05,2.79-5.06,5.779-8.85,4.99c-1.64-0.34-3.12-1.371-3.64-3.01c-0.01-0.031,0.04-0.051,0.05-0.021
						c0.51,1.63,1.98,2.64,3.61,2.979c1.79,0.381,3.54-0.129,5.04-1.129c1.62-1.08,2.88-2.621,4-4.181
						c1.17-1.63,2.2-3.351,3.07-5.16c1.03-2.12,1.74-4.39,2.11-6.72c0-0.03,0.05-0.02,0.05,0.01
						C200.59,327.15,198.5,331.279,195.84,334.91z"/>
				</g>
			</g>
		</g>
		<g>
			<g>
				<path id="bk2QaIef3" fill="#7799F2" d="M183.4,328.1c-0.01,0-0.02-0.01-0.02-0.029c0.01-0.01,0.02-0.021,0.03-0.01
					c5.86,1.479,11.92,1.5,17.92,1.5c0.02,0,0.03,0.01,0.02,0.029c0,0.01-0.01,0.01-0.02,0.02
					C195.33,329.609,189.26,329.59,183.4,328.1z"/>
			</g>
			<g>
				<g>
					<path id="bk2QaIef3_1_" fill-opacity="0" stroke="#000000" stroke-opacity="0" d="M183.4,328.1c-0.01,0-0.02-0.01-0.02-0.029
						c0.01-0.01,0.02-0.021,0.03-0.01c5.86,1.479,11.92,1.5,17.92,1.5c0.02,0,0.03,0.01,0.02,0.029c0,0.01-0.01,0.01-0.02,0.02
						C195.33,329.609,189.26,329.59,183.4,328.1z"/>
				</g>
			</g>
		</g>
		<g>
			<g>
				<path id="b4mJyxs3Gz" fill="#7799F2" d="M186.73,326.859c-3.23-0.67-6.37-1.709-9.36-3.1c-0.03-0.01,0-0.05,0.02-0.039
					c11.25,5.25,24,4.84,36,3.09c3.54-0.511,7.06-1.141,10.59-1.771c0.03,0,0.04,0.04,0.01,0.05
					C211.74,327.26,199.09,329.48,186.73,326.859z"/>
			</g>
			<g>
				<g>
					<path id="b4mJyxs3Gz_1_" fill-opacity="0" stroke="#000000" stroke-opacity="0" d="M186.73,326.859
						c-3.23-0.67-6.37-1.709-9.36-3.1c-0.03-0.01,0-0.05,0.02-0.039c11.25,5.25,24,4.84,36,3.09c3.54-0.511,7.06-1.141,10.59-1.771
						c0.03,0,0.04,0.04,0.01,0.05C211.74,327.26,199.09,329.48,186.73,326.859z"/>
				</g>
			</g>
		</g>
		<g>
			<g>
				<path id="a1CXk6XoBw" fill="#7799F2" d="M193.77,378.6c2.41,13.391,7.02,26.271,9.45,39.65c1.31,7.21,1.4,14.85,4.38,21.65
					c0.01,0.029-0.03,0.05-0.05,0.02c-2.61-5.96-2.92-12.54-3.91-18.89c-1.06-6.78-2.78-13.44-4.55-20.07
					c-1.77-6.601-3.58-13.2-4.91-19.92c-2.83-14.399-3.59-29.14-2.26-43.761c0-0.029,0.05-0.029,0.05,0
					C190.72,351.07,191.33,364.971,193.77,378.6z"/>
			</g>
			<g>
				<g>
					<path id="a1CXk6XoBw_1_" fill-opacity="0" stroke="#000000" stroke-opacity="0" d="M193.77,378.6
						c2.41,13.391,7.02,26.271,9.45,39.65c1.31,7.21,1.4,14.85,4.38,21.65c0.01,0.029-0.03,0.05-0.05,0.02
						c-2.61-5.96-2.92-12.54-3.91-18.89c-1.06-6.78-2.78-13.44-4.55-20.07c-1.77-6.601-3.58-13.2-4.91-19.92
						c-2.83-14.399-3.59-29.14-2.26-43.761c0-0.029,0.05-0.029,0.05,0C190.72,351.07,191.33,364.971,193.77,378.6z"/>
				</g>
			</g>
		</g>
		<g>
			<g>
				<path id="a52TBULGqS" fill="#7799F2" d="M200.35,423.38c-1.39-0.11-2.86-0.29-4.17-0.78c-0.99-0.369-1.86-1.08-2-2.189
					c0-0.03,0.04-0.03,0.05,0c0.21,1.609,1.84,2.189,3.22,2.49c1.34,0.29,2.7,0.46,4.07,0.5c2.66,0.069,5.32-0.33,7.85-1.19
					c0.03-0.01,0.04,0.04,0.01,0.05C206.48,423.24,203.4,423.63,200.35,423.38z"/>
			</g>
			<g>
				<g>
					<path id="a52TBULGqS_1_" fill-opacity="0" stroke="#000000" stroke-opacity="0" d="M200.35,423.38
						c-1.39-0.11-2.86-0.29-4.17-0.78c-0.99-0.369-1.86-1.08-2-2.189c0-0.03,0.04-0.03,0.05,0c0.21,1.609,1.84,2.189,3.22,2.49
						c1.34,0.29,2.7,0.46,4.07,0.5c2.66,0.069,5.32-0.33,7.85-1.19c0.03-0.01,0.04,0.04,0.01,0.05
						C206.48,423.24,203.4,423.63,200.35,423.38z"/>
				</g>
			</g>
		</g>
		<g>
			<g>
				<path id="birPKic65" fill="#384C94" d="M212.21,374.7c0.79,3.13-14.87,43.85-14.87,44.63c0,0,2.35,5.479,6.26,4.7
					c3.91-0.78,25.06-46.2,25.06-52.46s-4.93-43.711-7.17-48.48c-2.23-4.77-14.76,17.95-14.76,17.95
					C206.73,341.82,211.43,371.58,212.21,374.7z"/>
			</g>
			<g>
				<g>
					<path id="birPKic65_1_" fill-opacity="0" stroke="#000000" stroke-opacity="0" d="M212.21,374.7
						c0.79,3.13-14.87,43.85-14.87,44.63c0,0,2.35,5.479,6.26,4.7c3.91-0.78,25.06-46.2,25.06-52.46s-4.93-43.711-7.17-48.48
						c-2.23-4.77-14.76,17.95-14.76,17.95C206.73,341.82,211.43,371.58,212.21,374.7z"/>
				</g>
			</g>
		</g>
		<g>
			<g>
				<path id="c5cVG3I3L9" fill="#ffc1c2" d="M200.47,278.4c0,0,4.52-6.18,2.09-12.09c0.83,0.31,7.51,2.82,8.34,3.13
					c0,0-1.39,7.65,4.45,8.96c2.75,0.62-1.57,5.48-1.57,5.48c-0.68,0-4.07,0-10.18,0C201.93,280.96,200.89,279.13,200.47,278.4z"/>
			</g>
			<g>
				<g>
					<path id="c5cVG3I3L9_1_" fill-opacity="0" stroke="#000000" stroke-opacity="0" d="M200.47,278.4c0,0,4.52-6.18,2.09-12.09
						c0.83,0.31,7.51,2.82,8.34,3.13c0,0-1.39,7.65,4.45,8.96c2.75,0.62-1.57,5.48-1.57,5.48c-0.68,0-4.07,0-10.18,0
						C201.93,280.96,200.89,279.13,200.47,278.4z"/>
				</g>
			</g>
		</g>
		<g>
			<g>
				<path id="h4uveQFE6D" fill="#CC8B77" d="M212.08,273.82c0,0-7.44,1.88-8.13-5.78l9.04,5.57"/>
			</g>
			<g>
				<g>
					<path id="h4uveQFE6D_1_" fill-opacity="0" stroke="#000000" stroke-opacity="0" d="M212.08,273.82c0,0-7.44,1.88-8.13-5.78
						l9.04,5.57"/>
				</g>
			</g>
		</g>
		<g>
			<g>
				<path id="a6eYO3GohD" fill="#FFC1C2" d="M217.2,249.26c0,0.91,3.62,20.83-4.53,23.55s-11.78-9.05-11.78-9.05
					c0.36-0.85,2.18-5.08,5.44-12.69C212.12,250.11,215.75,249.5,217.2,249.26z"/>
			</g>
			<g>
				<g>
					<path id="a6eYO3GohD_1_" fill-opacity="0" stroke="#000000" stroke-opacity="0" d="M217.2,249.26c0,0.91,3.62,20.83-4.53,23.55
						s-11.78-9.05-11.78-9.05c0.36-0.85,2.18-5.08,5.44-12.69C212.12,250.11,215.75,249.5,217.2,249.26z"/>
				</g>
			</g>
		</g>
		<g>
			<g>
				<path id="a2vEpnT6Vh" fill="#F05831" d="M215.35,278.4c0,0,2.16-0.26,4.6,1.47c2.9,2.07,3.13,9.81,3.13,15.66
					c0,10.96-1.47,28.29-1.47,28.29s-8.63,11.359-26.01-3.95c0,0,4.09-7.81,3.3-10.16c-0.78-2.35-5.48-10.96-5.48-10.96
					s-2.35-12.53-7.83-12.53c0,0.01,12.53-5.47,14.88-7.82C203.44,278.4,208.3,283.88,215.35,278.4z"/>
			</g>
			<g>
				<g>
					<path id="a2vEpnT6Vh_1_" fill-opacity="0" stroke="#000000" stroke-opacity="0" d="M215.35,278.4c0,0,2.16-0.26,4.6,1.47
						c2.9,2.07,3.13,9.81,3.13,15.66c0,10.96-1.47,28.29-1.47,28.29s-8.63,11.359-26.01-3.95c0,0,4.09-7.81,3.3-10.16
						c-0.78-2.35-5.48-10.96-5.48-10.96s-2.35-12.53-7.83-12.53c0,0.01,12.53-5.47,14.88-7.82
						C203.44,278.4,208.3,283.88,215.35,278.4z"/>
				</g>
			</g>
		</g>
		<g>
			<g>
				<path id="d5ryZ5z0sJ" fill="#D69644" d="M227.04,327.641c0-0.051,0.04-0.101,0.1-0.101c0.05,0,0.1,0.05,0.1,0.101
					c0,0.06-0.05,0.1-0.1,0.1C227.08,327.74,227.04,327.7,227.04,327.641z"/>
			</g>
			<g>
				<g>
					<path id="d5ryZ5z0sJ_1_" fill-opacity="0" stroke="#000000" stroke-opacity="0" d="M227.04,327.641
						c0-0.051,0.04-0.101,0.1-0.101c0.05,0,0.1,0.05,0.1,0.101c0,0.06-0.05,0.1-0.1,0.1C227.08,327.74,227.04,327.7,227.04,327.641z
						"/>
				</g>
			</g>
		</g>
		<g>
			<g>
				<path id="aZ659BGRJ" d="M202.32,308.72l-2.2,0.48"/>
			</g>
			<g>
				<g>
					<path id="aZ659BGRJ_1_" fill-opacity="0" stroke="#000000" stroke-opacity="0" d="M202.32,308.72l-2.2,0.48"/>
				</g>
			</g>
		</g>
		<g>
			<g>
				<path id="c54QAjLMPJ" d="M202.32,310.95l-0.81-0.12"/>
			</g>
			<g>
				<g>
					<path id="c54QAjLMPJ_1_" fill-opacity="0" stroke="#000000" stroke-opacity="0" d="M202.32,310.95l-0.81-0.12"/>
				</g>
			</g>
		</g>
		<g>
			<g>
				<path id="ejQVycwO8" d="M207.5,281.33c-3.58-0.08-6.8-1.45-9.66-3.55c-1.64-1.21-3.15-2.58-4.65-3.96
					c-0.02-0.03,0.01-0.06,0.04-0.04c3.28,3.02,6.76,6.14,11.25,7.14c4.41,0.97,9.07-0.06,12.9-2.36c0.01-0.01,0.03,0,0.03,0.01
					c0.01,0.01,0.01,0.03-0.01,0.03C214.43,280.4,210.98,281.41,207.5,281.33z"/>
			</g>
			<g>
				<g>
					<path id="ejQVycwO8_1_" fill-opacity="0" stroke="#000000" stroke-opacity="0" d="M207.5,281.33c-3.58-0.08-6.8-1.45-9.66-3.55
						c-1.64-1.21-3.15-2.58-4.65-3.96c-0.02-0.03,0.01-0.06,0.04-0.04c3.28,3.02,6.76,6.14,11.25,7.14
						c4.41,0.97,9.07-0.06,12.9-2.36c0.01-0.01,0.03,0,0.03,0.01c0.01,0.01,0.01,0.03-0.01,0.03
						C214.43,280.4,210.98,281.41,207.5,281.33z"/>
				</g>
			</g>
		</g>
		<g>
			<g>
				<path id="dIxXsuFKW" d="M222.38,323.12c-1.93,1.33-4.09,2.271-6.38,2.771"/>
			</g>
			<g>
				<g>
					<path id="dIxXsuFKW_1_" fill-opacity="0" stroke="#000000" stroke-opacity="0" d="M222.38,323.12
						c-1.93,1.33-4.09,2.271-6.38,2.771"/>
				</g>
			</g>
		</g>
		<g>
			<g>
				<path id="cdDAvvHlp" d="M221.11,323.24l-2.21,0.58"/>
			</g>
			<g>
				<g>
					<path id="cdDAvvHlp_1_" fill-opacity="0" stroke="#000000" stroke-opacity="0" d="M221.11,323.24l-2.21,0.58"/>
				</g>
			</g>
		</g>
		<g>
			<g>
				<path id="j2oVEqz6Xg" d="M200.7,318.71c-1.07,0.3-2.15,0.54-3.25,0.71"/>
			</g>
			<g>
				<g>
					<path id="j2oVEqz6Xg_1_" fill-opacity="0" stroke="#000000" stroke-opacity="0" d="M200.7,318.71
						c-1.07,0.3-2.15,0.54-3.25,0.71"/>
				</g>
			</g>
		</g>
		<g>
			<g>
				<path id="c27wukYbeS" d="M199.08,317.81l-3.02,0.66"/>
			</g>
			<g>
				<g>
					<path id="c27wukYbeS_1_" fill-opacity="0" stroke="#000000" stroke-opacity="0" d="M199.08,317.81l-3.02,0.66"/>
				</g>
			</g>
		</g>
		<g>
			<g>
				<path id="fsdZWVPKG" d="M193.72,299.45c0.81-0.83,1.45-1.81,1.9-2.87"/>
			</g>
			<g>
				<g>
					<path id="fsdZWVPKG_1_" fill-opacity="0" stroke="#000000" stroke-opacity="0" d="M193.72,299.45c0.81-0.83,1.45-1.81,1.9-2.87
						"/>
				</g>
			</g>
		</g>
		<g>
			<g>
				<path id="b18duNMsNk" d="M195.25,299.93l0.7-0.46"/>
			</g>
			<g>
				<g>
					<path id="b18duNMsNk_1_" fill-opacity="0" stroke="#000000" stroke-opacity="0" d="M195.25,299.93l0.7-0.46"/>
				</g>
			</g>
		</g>
		<g>
			<g>
				<path id="e2Paj1Oml8" fill="#152D54" d="M214.38,251.7c0,0-1.74,3.13-5.22,1.39c0,0-1.04,3.48-3.82,2.43c0,0-1.05,8.7-4.18,5.57
					c-3.13-3.13,4.18-14.96,4.18-14.96c0.53,0,3.2,0,8,0c3.76,0.41,5.84,0.65,6.26,0.69c0,0,1.39,3.14,0,4.88
					C218.56,251.7,217.51,254.48,214.38,251.7z"/>
			</g>
			<g>
				<g>
					<path id="e2Paj1Oml8_1_" fill-opacity="0" stroke="#000000" stroke-opacity="0" d="M214.38,251.7c0,0-1.74,3.13-5.22,1.39
						c0,0-1.04,3.48-3.82,2.43c0,0-1.05,8.7-4.18,5.57c-3.13-3.13,4.18-14.96,4.18-14.96c0.53,0,3.2,0,8,0
						c3.76,0.41,5.84,0.65,6.26,0.69c0,0,1.39,3.14,0,4.88C218.56,251.7,217.51,254.48,214.38,251.7z"/>
				</g>
			</g>
		</g>
		<g>
			<g>
				<path id="e1aBP8O69i" fill="#FFC1C2" d="M201.19,264.98c0.89-0.37,1.17-1.69,0.64-2.95c-0.52-1.25-1.66-1.97-2.55-1.61
					c-0.88,0.37-1.16,1.69-0.64,2.95C199.17,264.63,200.31,265.35,201.19,264.98z"/>
			</g>
			<g>
				<g>
					<path id="e1aBP8O69i_1_" fill-opacity="0" stroke="#000000" stroke-opacity="0" d="M201.19,264.98
						c0.89-0.37,1.17-1.69,0.64-2.95c-0.52-1.25-1.66-1.97-2.55-1.61c-0.88,0.37-1.16,1.69-0.64,2.95
						C199.17,264.63,200.31,265.35,201.19,264.98z"/>
				</g>
			</g>
		</g>
		<g>
			<g>
				<path id="aqEly8gOh" fill="#7799F2" d="M204.99,349.971c-0.03,0.01-0.04-0.041-0.01-0.051c2.32-0.84,4.59-1.79,6.81-2.87
					c0.03-0.01,0.06,0.03,0.03,0.04C209.59,348.17,207.31,349.13,204.99,349.971z"/>
			</g>
			<g>
				<g>
					<path id="aqEly8gOh_1_" fill-opacity="0" stroke="#000000" stroke-opacity="0" d="M204.99,349.971
						c-0.03,0.01-0.04-0.041-0.01-0.051c2.32-0.84,4.59-1.79,6.81-2.87c0.03-0.01,0.06,0.03,0.03,0.04
						C209.59,348.17,207.31,349.13,204.99,349.971z"/>
				</g>
			</g>
		</g>
		<g>
			<g>
				<path id="a2chx6AXZd" fill="#7799F2" d="M203.09,349.109c-0.03,0.021-0.06-0.029-0.03-0.039c4.27-1.811,7.53-3.57,8.36-3.971
					c0.03-0.01,0.06,0.03,0.03,0.041C207.35,347.311,203.92,348.721,203.09,349.109z"/>
			</g>
			<g>
				<g>
					<path id="a2chx6AXZd_1_" fill-opacity="0" stroke="#000000" stroke-opacity="0" d="M203.09,349.109
						c-0.03,0.021-0.06-0.029-0.03-0.039c4.27-1.811,7.53-3.57,8.36-3.971c0.03-0.01,0.06,0.03,0.03,0.041
						C207.35,347.311,203.92,348.721,203.09,349.109z"/>
				</g>
			</g>
		</g>
		<g>
			<g>
				<path id="afa0PDszG" fill="#7799F2" d="M212.02,337.87c-0.73,2.08-2.05,4.89-4.73,4.47c-0.04,0-0.02-0.05,0.01-0.04
					c3.11,0.479,4.34-3.3,5.05-5.59c0.84-2.7,1.34-5.5,1.48-8.319c0-0.041,0.05-0.041,0.05,0
					C213.71,331.62,213.09,334.811,212.02,337.87z"/>
			</g>
			<g>
				<g>
					<path id="afa0PDszG_1_" fill-opacity="0" stroke="#000000" stroke-opacity="0" d="M212.02,337.87
						c-0.73,2.08-2.05,4.89-4.73,4.47c-0.04,0-0.02-0.05,0.01-0.04c3.11,0.479,4.34-3.3,5.05-5.59c0.84-2.7,1.34-5.5,1.48-8.319
						c0-0.041,0.05-0.041,0.05,0C213.71,331.62,213.09,334.811,212.02,337.87z"/>
				</g>
			</g>
		</g>
		<g>
			<g>
				<path id="clBdDfe1o" fill="#7799F2" d="M201.46,326.74c-0.03-0.02,0-0.061,0.03-0.04c6.22,4.04,14.53,4.35,21.05,0.8
					c0.01-0.01,0.03-0.01,0.03,0c0.01,0.02,0,0.029-0.01,0.04C216.04,331.1,207.7,330.79,201.46,326.74z"/>
			</g>
			<g>
				<g>
					<path id="clBdDfe1o_1_" fill-opacity="0" stroke="#000000" stroke-opacity="0" d="M201.46,326.74c-0.03-0.02,0-0.061,0.03-0.04
						c6.22,4.04,14.53,4.35,21.05,0.8c0.01-0.01,0.03-0.01,0.03,0c0.01,0.02,0,0.029-0.01,0.04
						C216.04,331.1,207.7,330.79,201.46,326.74z"/>
				</g>
			</g>
		</g>
		<g>
			<g>
				<path id="aVCnpMyX" fill="#7799F2" d="M219.04,337.51c-1.55-1.59-2.18-3.84-2.43-5.98c0-0.039,0.05-0.039,0.05,0
					c0.24,2.07,0.84,4.23,2.29,5.811c1.34,1.46,3.39,2.301,5.36,1.801c0.01,0,0.03,0.01,0.03,0.02s0,0.02-0.02,0.029
					C222.4,339.68,220.4,338.9,219.04,337.51z"/>
			</g>
			<g>
				<g>
					<path id="aVCnpMyX_1_" fill-opacity="0" stroke="#000000" stroke-opacity="0" d="M219.04,337.51
						c-1.55-1.59-2.18-3.84-2.43-5.98c0-0.039,0.05-0.039,0.05,0c0.24,2.07,0.84,4.23,2.29,5.811c1.34,1.46,3.39,2.301,5.36,1.801
						c0.01,0,0.03,0.01,0.03,0.02s0,0.02-0.02,0.029C222.4,339.68,220.4,338.9,219.04,337.51z"/>
				</g>
			</g>
		</g>
		<g>
			<g>
				<path id="a5NlEYujnp" fill="#7799F2" d="M212.14,351c0.01,0.029-0.04,0.04-0.05,0.01c-0.12-0.289-1.07-2.67-1.19-2.96
					c-0.01-0.03,0.03-0.05,0.05-0.021C211.18,348.63,212.02,350.7,212.14,351z"/>
			</g>
			<g>
				<g>
					<path id="a5NlEYujnp_1_" fill-opacity="0" stroke="#000000" stroke-opacity="0" d="M212.14,351c0.01,0.029-0.04,0.04-0.05,0.01
						c-0.12-0.289-1.07-2.67-1.19-2.96c-0.01-0.03,0.03-0.05,0.05-0.021C211.18,348.63,212.02,350.7,212.14,351z"/>
				</g>
			</g>
		</g>
		<g>
			<g>
				<path id="f1hVvJZ7Jl" fill="#7799F2" d="M216.53,368.98c0.27,1.149,0.54,2.289,0.8,3.439c0.22,0.99,0.32,1.92,0.04,2.91
					c-0.58,2.1-1.47,4.17-2.25,6.21c-4.67,12.29-9.42,21.69-10.47,24.101c-3.33,6.77-6.31,12.01-7.01,13.34
					c-0.02,0.029-0.06,0-0.04-0.021c6.36-11.36,10.48-20.95,11.64-23.28c2.69-6.06,4.58-11.02,5.09-12.24
					c1.18-3.039,2.06-5.489,2.29-6.1c0.38-1.05,0.89-2.17,0.88-3.311c-0.01-1.189-0.41-2.409-0.68-3.559
					c-0.35-1.5-3.13-13.521-3.48-15.031c0-0.01,0.01-0.02,0.03-0.02c0.01,0,0.02,0,0.02,0.01
					C213.39,355.43,216.22,367.62,216.53,368.98z"/>
			</g>
			<g>
				<g>
					<path id="f1hVvJZ7Jl_1_" fill-opacity="0" stroke="#000000" stroke-opacity="0" d="M216.53,368.98
						c0.27,1.149,0.54,2.289,0.8,3.439c0.22,0.99,0.32,1.92,0.04,2.91c-0.58,2.1-1.47,4.17-2.25,6.21
						c-4.67,12.29-9.42,21.69-10.47,24.101c-3.33,6.77-6.31,12.01-7.01,13.34c-0.02,0.029-0.06,0-0.04-0.021
						c6.36-11.36,10.48-20.95,11.64-23.28c2.69-6.06,4.58-11.02,5.09-12.24c1.18-3.039,2.06-5.489,2.29-6.1
						c0.38-1.05,0.89-2.17,0.88-3.311c-0.01-1.189-0.41-2.409-0.68-3.559c-0.35-1.5-3.13-13.521-3.48-15.031
						c0-0.01,0.01-0.02,0.03-0.02c0.01,0,0.02,0,0.02,0.01C213.39,355.43,216.22,367.62,216.53,368.98z"/>
				</g>
			</g>
		</g>
		<g>
			<g>
				<path id="blmq6e36j" fill="#7799F2" d="M197.7,416.24c-0.02-0.24-0.03-0.471-0.03-0.7c0-0.011,0.01-0.021,0.03-0.021
					c0.01,0,0.01,0.01,0.02,0.021c0.01,4,3.25,7.24,7.26,7.229c0.23,0,0.46-0.01,0.7-0.039c0.03,0,0.03,0.05,0,0.05
					C201.67,423.18,198.1,420.25,197.7,416.24z"/>
			</g>
			<g>
				<g>
					<path id="blmq6e36j_1_" fill-opacity="0" stroke="#000000" stroke-opacity="0" d="M197.7,416.24
						c-0.02-0.24-0.03-0.471-0.03-0.7c0-0.011,0.01-0.021,0.03-0.021c0.01,0,0.01,0.01,0.02,0.021c0.01,4,3.25,7.24,7.26,7.229
						c0.23,0,0.46-0.01,0.7-0.039c0.03,0,0.03,0.05,0,0.05C201.67,423.18,198.1,420.25,197.7,416.24z"/>
				</g>
			</g>
		</g>
		<g>
			<g>
				<path id="b1vpORCAMC" fill="#f3c6a5" d="M355.3,440.55c4.51,4.38,7.01,6.82,7.51,7.311c0,0-1.279,3.25,5.82,8.67
					c0,0,16.97-24.95,15.82-25.69c-1.15-0.75-10.36,7.17-10.36,7.17c-0.45,0.19-2.72,1.17-6.8,2.94l-7.14-7.891L355.3,440.55z"/>
			</g>
			<g>
				<g>
					<path id="b1vpORCAMC_1_" fill-opacity="0" stroke="#000000" stroke-opacity="0" d="M355.3,440.55
						c4.51,4.38,7.01,6.82,7.51,7.311c0,0-1.279,3.25,5.82,8.67c0,0,16.97-24.95,15.82-25.69c-1.15-0.75-10.36,7.17-10.36,7.17
						c-0.45,0.19-2.72,1.17-6.8,2.94l-7.14-7.891L355.3,440.55z"/>
				</g>
			</g>
		</g>
		<g>
			<g>
				<path id="chWis6zdq" fill="#6B2828" d="M366.26,447.87c4,0.63-0.319-7.07,1.49-8.34c1.8-1.28,17.65-10.62,17.65-10.62
					c0.1,0.26,0.569,1.55,1.42,3.859c-10.94,15.54-17.021,24.181-18.24,25.9c0,0-7.72-5.479-6.64-10.17
					C362.14,447.6,362.26,447.24,366.26,447.87z"/>
			</g>
			<g>
				<g>
					<path id="chWis6zdq_1_" fill-opacity="0" stroke="#000000" stroke-opacity="0" d="M366.26,447.87c4,0.63-0.319-7.07,1.49-8.34
						c1.8-1.28,17.65-10.62,17.65-10.62c0.1,0.26,0.569,1.55,1.42,3.859c-10.94,15.54-17.021,24.181-18.24,25.9
						c0,0-7.72-5.479-6.64-10.17C362.14,447.6,362.26,447.24,366.26,447.87z"/>
				</g>
			</g>
		</g>
		<g>
			<g>
				<path id="aqCcqOPcs" fill="#DD442F" d="M319.77,405.43c0,0,15.771,21.94,36.33,36.33c0.75-0.75,6.79-6.79,7.54-7.54
					c0,0-31.529-48.67-41.13-50.72c-9.59-2.061-33.58,1.37-34.95,4.79C294,391.721,313.6,404.061,319.77,405.43z"/>
			</g>
			<g>
				<g>
					<path id="aqCcqOPcs_1_" fill-opacity="0" stroke="#000000" stroke-opacity="0" d="M319.77,405.43c0,0,15.771,21.94,36.33,36.33
						c0.75-0.75,6.79-6.79,7.54-7.54c0,0-31.529-48.67-41.13-50.72c-9.59-2.061-33.58,1.37-34.95,4.79
						C294,391.721,313.6,404.061,319.77,405.43z"/>
				</g>
			</g>
		</g>
		<g>
			<g>
				<path id="e1xfk3ckA" fill="#D64170" d="M318.34,392.311c0,0-6.99,7.81-7.399,15.209l20.56,16.86c0,0,10.69-33.3,8.22-34.95
					c-2.46-1.64-41.109-6.17-47.69,3.7C297.29,392.971,316.29,393.13,318.34,392.311z"/>
			</g>
			<g>
				<g>
					<path id="e1xfk3ckA_1_" fill-opacity="0" stroke="#000000" stroke-opacity="0" d="M318.34,392.311c0,0-6.99,7.81-7.399,15.209
						l20.56,16.86c0,0,10.69-33.3,8.22-34.95c-2.46-1.64-41.109-6.17-47.69,3.7C297.29,392.971,316.29,393.13,318.34,392.311z"/>
				</g>
			</g>
		</g>
		<g>
			<g>
				<path id="co3a0GbVf" fill="#D64170" d="M348.46,404.85c0-0.06,0.05-0.1,0.1-0.1c0.061,0,0.101,0.04,0.101,0.1
					c0,0.051-0.04,0.101-0.101,0.101C348.51,404.95,348.46,404.9,348.46,404.85z"/>
			</g>
			<g>
				<g>
					<path id="co3a0GbVf_1_" fill-opacity="0" stroke="#000000" stroke-opacity="0" d="M348.46,404.85c0-0.06,0.05-0.1,0.1-0.1
						c0.061,0,0.101,0.04,0.101,0.1c0,0.051-0.04,0.101-0.101,0.101C348.51,404.95,348.46,404.9,348.46,404.85z"/>
				</g>
			</g>
		</g>
		<g>
			<g>
				<path id="b329RlxkB" fill="#D64170" d="M364.46,431.25c-0.14,0.09-0.27,0.2-0.4,0.3c-0.199,0.16-0.39,0.32-0.59,0.48
					c-0.09,0.069-0.52,0.42-1.29,1.05l-2.39,1.93l-5.06,4.101c-6.021,4.88-9.36,7.59-10.03,8.13c-0.021,0.02-0.061-0.01-0.03-0.03
					c0.79-0.64,4.72-3.83,11.811-9.58l5.859-4.75c0.83-0.67,1.3-1.05,1.391-1.12c0.289-0.229,0.579-0.569,0.949-0.64
					c0.25-0.05,0.61-0.021,0.53,0.3c-0.01,0.03-0.05,0.021-0.05-0.01C364.88,430.98,364.53,431.26,364.46,431.25z"/>
			</g>
			<g>
				<g>
					<path id="b329RlxkB_1_" fill-opacity="0" stroke="#000000" stroke-opacity="0" d="M364.46,431.25c-0.14,0.09-0.27,0.2-0.4,0.3
						c-0.199,0.16-0.39,0.32-0.59,0.48c-0.09,0.069-0.52,0.42-1.29,1.05l-2.39,1.93l-5.06,4.101c-6.021,4.88-9.36,7.59-10.03,8.13
						c-0.021,0.02-0.061-0.01-0.03-0.03c0.79-0.64,4.72-3.83,11.811-9.58l5.859-4.75c0.83-0.67,1.3-1.05,1.391-1.12
						c0.289-0.229,0.579-0.569,0.949-0.64c0.25-0.05,0.61-0.021,0.53,0.3c-0.01,0.03-0.05,0.021-0.05-0.01
						C364.88,430.98,364.53,431.26,364.46,431.25z"/>
				</g>
			</g>
		</g>
		<g>
			<g>
				<path id="al2NSq5Gi" fill="#D64170" d="M362.46,432.06c-0.55,0.54-1.28,0.921-1.9,1.37c-1.6,1.15-3.13,2.38-4.6,3.69
					c-2.86,2.54-5.46,5.35-7.77,8.399c-0.021,0.021-0.061,0-0.04-0.029c2.04-2.69,4.31-5.2,6.779-7.51
					c1.88-1.74,3.511-2.98,3.9-3.32c0.92-0.71,1.689-1.26,1.88-1.4c0.62-0.45,2.58-1.39,2.04-2.41c-0.01-0.029,0.03-0.05,0.05-0.02
					C363.05,431.29,362.8,431.71,362.46,432.06z"/>
			</g>
			<g>
				<g>
					<path id="al2NSq5Gi_1_" fill-opacity="0" stroke="#000000" stroke-opacity="0" d="M362.46,432.06
						c-0.55,0.54-1.28,0.921-1.9,1.37c-1.6,1.15-3.13,2.38-4.6,3.69c-2.86,2.54-5.46,5.35-7.77,8.399
						c-0.021,0.021-0.061,0-0.04-0.029c2.04-2.69,4.31-5.2,6.779-7.51c1.88-1.74,3.511-2.98,3.9-3.32c0.92-0.71,1.689-1.26,1.88-1.4
						c0.62-0.45,2.58-1.39,2.04-2.41c-0.01-0.029,0.03-0.05,0.05-0.02C363.05,431.29,362.8,431.71,362.46,432.06z"/>
				</g>
			</g>
		</g>
		<g>
			<g>
				<path id="bHsnFr0I" fill="#f3c6a5" d="M309.49,436.28c-1.23,6.17-1.92,9.59-2.061,10.279c0,0-3.42,0.681-4.109,9.601
					c0,0,30.16,0.68,30.16-0.69s-11.65-4.8-11.65-4.8c-0.41-0.27-2.47-1.64-6.17-4.11l2.74-10.279H309.49z"/>
			</g>
			<g>
				<g>
					<path id="bHsnFr0I_1_" fill-opacity="0" stroke="#000000" stroke-opacity="0" d="M309.49,436.28
						c-1.23,6.17-1.92,9.59-2.061,10.279c0,0-3.42,0.681-4.109,9.601c0,0,30.16,0.68,30.16-0.69s-11.65-4.8-11.65-4.8
						c-0.41-0.27-2.47-1.64-6.17-4.11l2.74-10.279H309.49z"/>
				</g>
			</g>
		</g>
		<g>
			<g>
				<path id="e210U5MhKg" fill="#6B2828" d="M309.3,449.46c1.65,3.7,5.76-4.11,7.811-3.29c2.05,0.82,18.5,9.04,18.5,9.04
					c-0.17,0.22-0.99,1.32-2.471,3.29c-18.989-0.74-29.55-1.15-31.659-1.23c0,0,0.42-9.46,4.939-11.1
					C307.29,445.85,307.66,445.76,309.3,449.46z"/>
			</g>
			<g>
				<g>
					<path id="e210U5MhKg_1_" fill-opacity="0" stroke="#000000" stroke-opacity="0" d="M309.3,449.46
						c1.65,3.7,5.76-4.11,7.811-3.29c2.05,0.82,18.5,9.04,18.5,9.04c-0.17,0.22-0.99,1.32-2.471,3.29
						c-18.989-0.74-29.55-1.15-31.659-1.23c0,0,0.42-9.46,4.939-11.1C307.29,445.85,307.66,445.76,309.3,449.46z"/>
				</g>
			</g>
		</g>
		<g>
			<g>
				<path id="a3PdZZZ2Be" fill="#7799F2" d="M264.25,313.58c-1.23,0.82-1.92,1.28-2.06,1.37c0,0-7.54,0-13.71,2.74
					c0,0,0,55.52,5.49,62.38c0,0,30.85-1.37,43.18-13.021c0,0-6.85-49.36-10.28-51.41c-3.43-2.06-15.77-0.69-15.77-0.69
					C270.19,314.77,267.9,314.31,264.25,313.58z"/>
			</g>
			<g>
				<g>
					<path id="a3PdZZZ2Be_1_" fill-opacity="0" stroke="#000000" stroke-opacity="0" d="M264.25,313.58
						c-1.23,0.82-1.92,1.28-2.06,1.37c0,0-7.54,0-13.71,2.74c0,0,0,55.52,5.49,62.38c0,0,30.85-1.37,43.18-13.021
						c0,0-6.85-49.36-10.28-51.41c-3.43-2.06-15.77-0.69-15.77-0.69C270.19,314.77,267.9,314.31,264.25,313.58z"/>
				</g>
			</g>
		</g>
		<g>
			<g>
				<path id="apE4Frddc" fill="#F05831" d="M321.14,390.35c0,0-10.279,16.45-13.71,47.301c1.24,0.27,11.11,2.46,12.34,2.739
					c0,0,23.061-46.78,19.44-66.7c-0.13-0.699-0.68-1.26-1.38-1.39c-5.58-1.11-30.5-5.86-46.85-5.25
					c-18.51,0.681-37.76,11.72-37.76,11.72C266.81,381.09,253.28,397.2,321.14,390.35z"/>
			</g>
			<g>
				<g>
					<path id="apE4Frddc_1_" fill-opacity="0" stroke="#000000" stroke-opacity="0" d="M321.14,390.35
						c0,0-10.279,16.45-13.71,47.301c1.24,0.27,11.11,2.46,12.34,2.739c0,0,23.061-46.78,19.44-66.7
						c-0.13-0.699-0.68-1.26-1.38-1.39c-5.58-1.11-30.5-5.86-46.85-5.25c-18.51,0.681-37.76,11.72-37.76,11.72
						C266.81,381.09,253.28,397.2,321.14,390.35z"/>
				</g>
			</g>
		</g>
		<g>
			<g>
				<path id="aBku3QmCv" fill="#C23360" d="M306.8,418.529c0.061-0.02,0.11,0.011,0.13,0.07c0.011,0.051-0.02,0.101-0.069,0.121
					c-0.08,0.02-0.74,0.18-0.83,0.199c-0.05,0.01-0.101-0.02-0.11-0.08c-0.01-0.04,0.021-0.09,0.061-0.109
					C306.15,418.689,306.72,418.55,306.8,418.529z"/>
			</g>
			<g>
				<g>
					<path id="aBku3QmCv_1_" fill-opacity="0" stroke="#000000" stroke-opacity="0" d="M306.8,418.529
						c0.061-0.02,0.11,0.011,0.13,0.07c0.011,0.051-0.02,0.101-0.069,0.121c-0.08,0.02-0.74,0.18-0.83,0.199
						c-0.05,0.01-0.101-0.02-0.11-0.08c-0.01-0.04,0.021-0.09,0.061-0.109C306.15,418.689,306.72,418.55,306.8,418.529z"/>
				</g>
			</g>
		</g>
		<g>
			<g>
				<path id="b4jzROgCh" fill="#C23360" d="M301.69,432.38c-0.03-0.01-0.011-0.06,0.02-0.05c10.05,2.229,17.92,4.7,19.91,5.229
					c0.02,0,0.03,0.021,0.02,0.03c0,0.01-0.02,0.021-0.029,0.021C311.75,434.61,303.69,432.9,301.69,432.38z"/>
			</g>
			<g>
				<g>
					<path id="b4jzROgCh_1_" fill-opacity="0" stroke="#000000" stroke-opacity="0" d="M301.69,432.38
						c-0.03-0.01-0.011-0.06,0.02-0.05c10.05,2.229,17.92,4.7,19.91,5.229c0.02,0,0.03,0.021,0.02,0.03
						c0,0.01-0.02,0.021-0.029,0.021C311.75,434.61,303.69,432.9,301.69,432.38z"/>
				</g>
			</g>
		</g>
		<g>
			<g>
				<path id="d10i5l5iy7" fill="#C23360" d="M285.66,369.279c-0.04,0-0.05-0.039-0.02-0.049c0.8-0.201,7.22-1.82,8.03-2.03
					c0.03,0,0.04,0.04,0.01,0.05C292.08,367.66,286.46,369.07,285.66,369.279z"/>
			</g>
			<g>
				<g>
					<path id="d10i5l5iy7_1_" fill-opacity="0" stroke="#000000" stroke-opacity="0" d="M285.66,369.279
						c-0.04,0-0.05-0.039-0.02-0.049c0.8-0.201,7.22-1.82,8.03-2.03c0.03,0,0.04,0.04,0.01,0.05
						C292.08,367.66,286.46,369.07,285.66,369.279z"/>
				</g>
			</g>
		</g>
		<g>
			<g>
				<path id="fNVgsBdVt" fill="#C23360" d="M286.69,371.57c-0.03,0.01-0.04-0.041-0.01-0.051c0.29-0.08,2.59-0.74,2.88-0.819
					c0.01,0,0.02,0.01,0.02,0.021c0,0.01,0,0.02-0.01,0.029C288.99,370.91,286.98,371.49,286.69,371.57z"/>
			</g>
			<g>
				<g>
					<path id="fNVgsBdVt_1_" fill-opacity="0" stroke="#000000" stroke-opacity="0" d="M286.69,371.57
						c-0.03,0.01-0.04-0.041-0.01-0.051c0.29-0.08,2.59-0.74,2.88-0.819c0.01,0,0.02,0.01,0.02,0.021c0,0.01,0,0.02-0.01,0.029
						C288.99,370.91,286.98,371.49,286.69,371.57z"/>
				</g>
			</g>
		</g>
		<g>
			<g>
				<path id="gljzMx58r" fill="#C23360" d="M254.85,382.76c-2.43,2.461-4.59,5.16-6.46,8.07c-0.01,0.029-0.06,0-0.04-0.02
					c6.63-10.36,17.16-18.031,28.97-21.4c3.33-0.939,6.75-1.54,10.2-1.77c0.03,0,0.03,0.049,0,0.049
					C275.27,368.51,263.48,374.04,254.85,382.76z"/>
			</g>
			<g>
				<g>
					<path id="gljzMx58r_1_" fill-opacity="0" stroke="#000000" stroke-opacity="0" d="M254.85,382.76
						c-2.43,2.461-4.59,5.16-6.46,8.07c-0.01,0.029-0.06,0-0.04-0.02c6.63-10.36,17.16-18.031,28.97-21.4
						c3.33-0.939,6.75-1.54,10.2-1.77c0.03,0,0.03,0.049,0,0.049C275.27,368.51,263.48,374.04,254.85,382.76z"/>
				</g>
			</g>
		</g>
		<g>
			<g>
				<path id="dMEvsc0nA" fill="#C23360" d="M271.61,380.35c1.83,1.101,3.5,2.43,4.98,3.961c1.46,1.529,3.09,3.459,3.34,5.64
					c0.21,1.819-1.06,4-3.11,3.78c-0.03,0-0.03-0.051,0-0.051c1.13,0.12,2.12-0.57,2.65-1.539c0.58-1.021,0.53-2.23,0.14-3.32
					c-0.7-2-2.24-3.74-3.75-5.18c-2.89-2.761-6.48-4.69-10.16-6.17c-2.09-0.83-4.22-1.531-6.37-2.171
					c-0.03-0.01-0.01-0.06,0.02-0.05C263.59,376.529,267.83,378.02,271.61,380.35z"/>
			</g>
			<g>
				<g>
					<path id="dMEvsc0nA_1_" fill-opacity="0" stroke="#000000" stroke-opacity="0" d="M271.61,380.35
						c1.83,1.101,3.5,2.43,4.98,3.961c1.46,1.529,3.09,3.459,3.34,5.64c0.21,1.819-1.06,4-3.11,3.78c-0.03,0-0.03-0.051,0-0.051
						c1.13,0.12,2.12-0.57,2.65-1.539c0.58-1.021,0.53-2.23,0.14-3.32c-0.7-2-2.24-3.74-3.75-5.18c-2.89-2.761-6.48-4.69-10.16-6.17
						c-2.09-0.83-4.22-1.531-6.37-2.171c-0.03-0.01-0.01-0.06,0.02-0.05C263.59,376.529,267.83,378.02,271.61,380.35z"/>
				</g>
			</g>
		</g>
		<g>
			<g>
				<path id="h505T2h5MI" fill="#C23360" d="M261,388.42c-0.01,0.03-0.06,0.02-0.05-0.02c1.64-4.771,5.82-7.95,9.74-10.84
					c0.02-0.021,0.05,0.02,0.02,0.039C266.81,380.48,262.64,383.65,261,388.42z"/>
			</g>
			<g>
				<g>
					<path id="h505T2h5MI_1_" fill-opacity="0" stroke="#000000" stroke-opacity="0" d="M261,388.42c-0.01,0.03-0.06,0.02-0.05-0.02
						c1.64-4.771,5.82-7.95,9.74-10.84c0.02-0.021,0.05,0.02,0.02,0.039C266.81,380.48,262.64,383.65,261,388.42z"/>
				</g>
			</g>
		</g>
		<g>
			<g>
				<path id="a1Vlv76t6Q" fill="#C23360" d="M262.62,380.391c-2.01,1.76-3.93,4.149-3.62,6.979c0,0.03-0.05,0.03-0.05,0
					c-0.29-2.7,1.43-5.011,3.33-6.74c2.22-2.04,4.83-3.68,7.55-4.979c0.03-0.01,0.05,0.029,0.02,0.039
					C267.24,376.92,264.8,378.5,262.62,380.391z"/>
			</g>
			<g>
				<g>
					<path id="a1Vlv76t6Q_1_" fill-opacity="0" stroke="#000000" stroke-opacity="0" d="M262.62,380.391
						c-2.01,1.76-3.93,4.149-3.62,6.979c0,0.03-0.05,0.03-0.05,0c-0.29-2.7,1.43-5.011,3.33-6.74c2.22-2.04,4.83-3.68,7.55-4.979
						c0.03-0.01,0.05,0.029,0.02,0.039C267.24,376.92,264.8,378.5,262.62,380.391z"/>
				</g>
			</g>
		</g>
		<g>
			<g>
				<path id="a2nJQ3VET" fill="#C23360" d="M322.41,384.9c0.01-0.03,0.06-0.021,0.05,0.01c-0.42,1.32-1.02,2.58-1.78,3.75
					c-0.02,0.02-0.069,0-0.05-0.03C321.39,387.471,321.99,386.221,322.41,384.9z"/>
			</g>
			<g>
				<g>
					<path id="a2nJQ3VET_1_" fill-opacity="0" stroke="#000000" stroke-opacity="0" d="M322.41,384.9
						c0.01-0.03,0.06-0.021,0.05,0.01c-0.42,1.32-1.02,2.58-1.78,3.75c-0.02,0.02-0.069,0-0.05-0.03
						C321.39,387.471,321.99,386.221,322.41,384.9z"/>
				</g>
			</g>
		</g>
		<g>
			<g>
				<path id="i1LMFGRVp7" fill="#C23360" d="M325.1,386.939c0.021-0.029,0.061,0.011,0.03,0.031c-0.29,0.239-2.61,2.199-2.899,2.439
					c-0.021,0.02-0.061-0.01-0.03-0.03C322.78,388.891,324.81,387.18,325.1,386.939z"/>
			</g>
			<g>
				<g>
					<path id="i1LMFGRVp7_1_" fill-opacity="0" stroke="#000000" stroke-opacity="0" d="M325.1,386.939
						c0.021-0.029,0.061,0.011,0.03,0.031c-0.29,0.239-2.61,2.199-2.899,2.439c-0.021,0.02-0.061-0.01-0.03-0.03
						C322.78,388.891,324.81,387.18,325.1,386.939z"/>
				</g>
			</g>
		</g>
		<g>
			<g>
				<path id="asnaWz93k" fill="#f3c6a5" d="M262.84,304.73c-0.39,6.13-0.6,9.54-0.64,10.22c0,0,6.17,5.49,10.97,0
					c-0.05-0.59-0.28-3.56-0.69-8.91L262.84,304.73z"/>
			</g>
			<g>
				<g>
					<path id="asnaWz93k_1_" fill-opacity="0" stroke="#000000" stroke-opacity="0" d="M262.84,304.73
						c-0.39,6.13-0.6,9.54-0.64,10.22c0,0,6.17,5.49,10.97,0c-0.05-0.59-0.28-3.56-0.69-8.91L262.84,304.73z"/>
				</g>
			</g>
		</g>
		<g>
			<g>
				<path id="bE5E7mg5w" fill="#FDB483" d="M264.15,306.25c-1.24-6.2,11.79,4.97,11.79,4.97
					C273.58,310.22,265.4,312.46,264.15,306.25z"/>
			</g>
			<g>
				<g>
					<path id="bE5E7mg5w_1_" fill-opacity="0" stroke="#000000" stroke-opacity="0" d="M264.15,306.25
						c-1.24-6.2,11.79,4.97,11.79,4.97C273.58,310.22,265.4,312.46,264.15,306.25z"/>
				</g>
			</g>
		</g>
		<g>
			<g>
				<path id="bJBY2tCZ0" fill="#f3c6a5" d="M248.03,340.311c-3.59-3.871-8.77-4.131-11.11-4.021c-2.47,6.01-4.7,12.62-5.74,18.19
					c0,0,9.65,13.709,43.78,9.6c0.24-0.54,2.22-4.82,2.46-5.35c0,0-27.74-5.891-34.73-9.59
					C243.76,347.37,245.29,345.15,248.03,340.311z"/>
			</g>
			<g>
				<g>
					<path id="bJBY2tCZ0_1_" fill-opacity="0" stroke="#000000" stroke-opacity="0" d="M248.03,340.311
						c-3.59-3.871-8.77-4.131-11.11-4.021c-2.47,6.01-4.7,12.62-5.74,18.19c0,0,9.65,13.709,43.78,9.6
						c0.24-0.54,2.22-4.82,2.46-5.35c0,0-27.74-5.891-34.73-9.59C243.76,347.37,245.29,345.15,248.03,340.311z"/>
				</g>
			</g>
		</g>
		<g>
			<g>
				<path id="e1I2mro8lU" fill="#7799F2" d="M254.2,324.88c-0.82-5.34-2.47-6.17-2.47-6.17s-2.46-2.88-5.76,0.41
					c-1.89,1.899-7.74,11.149-11.1,19.33c2.35-0.11,10,0.239,13.57,4.11C251.66,336.87,254.64,327.77,254.2,324.88z"/>
			</g>
			<g>
				<g>
					<path id="e1I2mro8lU_1_" fill-opacity="0" stroke="#000000" stroke-opacity="0" d="M254.2,324.88
						c-0.82-5.34-2.47-6.17-2.47-6.17s-2.46-2.88-5.76,0.41c-1.89,1.899-7.74,11.149-11.1,19.33c2.35-0.11,10,0.239,13.57,4.11
						C251.66,336.87,254.64,327.77,254.2,324.88z"/>
				</g>
			</g>
		</g>
		<g>
			<g>
				<path id="b6tfuBhtc4" fill="#4D5BA3" d="M274.95,364.08c6.63-16.37,10.31-25.46,11.04-27.28c0.38-0.92,1.26-1.51,2.25-1.51
					c4.65,0,41.88,0,46.529,0c0.94,0,1.69,0.75,1.69,1.69c0,0.229-0.04,0.449-0.13,0.66c-0.85,1.989-5.08,11.949-12.71,29.859
					h-67.17l0.64-2.41L274.95,364.08z"/>
			</g>
			<g>
				<g>
					<path id="b6tfuBhtc4_1_" fill-opacity="0" stroke="#000000" stroke-opacity="0" d="M274.95,364.08
						c6.63-16.37,10.31-25.46,11.04-27.28c0.38-0.92,1.26-1.51,2.25-1.51c4.65,0,41.88,0,46.529,0c0.94,0,1.69,0.75,1.69,1.69
						c0,0.229-0.04,0.449-0.13,0.66c-0.85,1.989-5.08,11.949-12.71,29.859h-67.17l0.64-2.41L274.95,364.08z"/>
				</g>
			</g>
		</g>
		<g>
			<g>
				<path id="a1ZVQ5keth" fill="#f3c6a5" d="M247.72,317.67c0.96-0.36,2.1-2.56,3.38-1.5c0,0,2.42-1.14,2.74,0.27
					c0.32,1.42,1.46,3.84,0.41,5.121c-1.05,1.279-6.15-0.34-8.58-2.801C246.32,318.34,247,317.97,247.72,317.67z"/>
			</g>
			<g>
				<g>
					<path id="a1ZVQ5keth_1_" fill-opacity="0" stroke="#000000" stroke-opacity="0" d="M247.72,317.67c0.96-0.36,2.1-2.56,3.38-1.5
						c0,0,2.42-1.14,2.74,0.27c0.32,1.42,1.46,3.84,0.41,5.121c-1.05,1.279-6.15-0.34-8.58-2.801
						C246.32,318.34,247,317.97,247.72,317.67z"/>
				</g>
			</g>
		</g>
		<g>
			<g>
				<path id="c49quZvWu5" fill="#f3c6a5" d="M278.05,283.73c0,0,7.73,22.64-2.88,25.53l-15.26-7.8c-0.01-1.01-0.04-6.06-0.09-15.14
					C269.54,284.94,275.62,284.07,278.05,283.73z"/>
			</g>
			<g>
				<g>
					<path id="c49quZvWu5_1_" fill-opacity="0" stroke="#000000" stroke-opacity="0" d="M278.05,283.73c0,0,7.73,22.64-2.88,25.53
						l-15.26-7.8c-0.01-1.01-0.04-6.06-0.09-15.14C269.54,284.94,275.62,284.07,278.05,283.73z"/>
				</g>
			</g>
		</g>
		<g>
			<g>
				<path id="c2GMGGeHru" fill="#444" d="M253.43,289.1c0,0-0.89-7.89,8.02-9.51c0,0,10.98-10.82,10.99-3.09
					c0,0,8.87-3.91,7.48,4.03c0,0,7.94-0.021,1.42,6.11c0,0-7.77,6.87-18.93,3.11c0,0,3.8,4.3,1.99,9.44c0,0,1.14,4.92-0.73,7.78
					C261.62,303.4,247.16,299.65,253.43,289.1z"/>
			</g>
			<g>
				<g>
					<path id="c2GMGGeHru_1_" fill-opacity="0" stroke="#000000" stroke-opacity="0" d="M253.43,289.1c0,0-0.89-7.89,8.02-9.51
						c0,0,10.98-10.82,10.99-3.09c0,0,8.87-3.91,7.48,4.03c0,0,7.94-0.021,1.42,6.11c0,0-7.77,6.87-18.93,3.11
						c0,0,3.8,4.3,1.99,9.44c0,0,1.14,4.92-0.73,7.78C261.62,303.4,247.16,299.65,253.43,289.1z"/>
				</g>
			</g>
		</g>
		<g>
			<g>
				<path id="a5gFjJbMa" fill="#f3c6a5" d="M263.7,303.86c-1.44,0.74-3.35-0.08-4.25-1.84c-0.91-1.76-0.48-3.79,0.96-4.54
					c1.44-0.74,3.34,0.09,4.25,1.85C265.57,301.09,265.14,303.12,263.7,303.86z"/>
			</g>
			<g>
				<g>
					<path id="a5gFjJbMa_1_" fill-opacity="0" stroke="#000000" stroke-opacity="0" d="M263.7,303.86
						c-1.44,0.74-3.35-0.08-4.25-1.84c-0.91-1.76-0.48-3.79,0.96-4.54c1.44-0.74,3.34,0.09,4.25,1.85
						C265.57,301.09,265.14,303.12,263.7,303.86z"/>
				</g>
			</g>
		</g>
		<g>
			<g>
				<path id="b5vpyutAPG" fill="#444" d="M261.88,289c0.01,0.07,0.02,0.14,0.05,0.21c0.03,0.06,0.06,0.12,0.1,0.17
					c0.03,0.06,0.07,0.11,0.12,0.16c0.03,0.05,0.08,0.1,0.12,0.14c0.19,0.17,0.4,0.33,0.61,0.46c0.03,0.01,0.14,0.07,0.34,0.18
					l0.08,0.04l0.09,0.04l0.17,0.07l0.35,0.15c0.21,0.07,0.33,0.11,0.36,0.12c0.95,0.31,1.93,0.54,2.92,0.69
					c0.05,0.01,0.3,0.05,0.74,0.12l0.75,0.09l0.74,0.09c0.45,0.04,0.7,0.06,0.75,0.06c1,0.1,2,0.13,2.99,0.18
					c-0.99-0.06-1.99-0.11-2.99-0.21c-0.05-0.01-0.3-0.03-0.74-0.07l-0.75-0.1l-0.74-0.1c-0.44-0.07-0.69-0.12-0.74-0.12
					c-0.99-0.16-1.96-0.4-2.9-0.72c-0.02-0.01-0.14-0.05-0.35-0.13l-0.34-0.15l-0.17-0.08l-0.09-0.03l-0.08-0.05
					c-0.19-0.11-0.3-0.17-0.32-0.18c-0.21-0.13-0.41-0.28-0.59-0.44c-0.04-0.04-0.08-0.09-0.12-0.13c-0.04-0.05-0.08-0.09-0.11-0.15
					c-0.03-0.04-0.06-0.1-0.08-0.15c-0.02-0.05-0.03-0.1-0.04-0.16C261.98,289,261.91,289,261.88,289z"/>
			</g>
			<g>
				<g>
					<path id="b5vpyutAPG_1_" fill-opacity="0" stroke="#000000" stroke-opacity="0" d="M261.88,289c0.01,0.07,0.02,0.14,0.05,0.21
						c0.03,0.06,0.06,0.12,0.1,0.17c0.03,0.06,0.07,0.11,0.12,0.16c0.03,0.05,0.08,0.1,0.12,0.14c0.19,0.17,0.4,0.33,0.61,0.46
						c0.03,0.01,0.14,0.07,0.34,0.18l0.08,0.04l0.09,0.04l0.17,0.07l0.35,0.15c0.21,0.07,0.33,0.11,0.36,0.12
						c0.95,0.31,1.93,0.54,2.92,0.69c0.05,0.01,0.3,0.05,0.74,0.12l0.75,0.09l0.74,0.09c0.45,0.04,0.7,0.06,0.75,0.06
						c1,0.1,2,0.13,2.99,0.18c-0.99-0.06-1.99-0.11-2.99-0.21c-0.05-0.01-0.3-0.03-0.74-0.07l-0.75-0.1l-0.74-0.1
						c-0.44-0.07-0.69-0.12-0.74-0.12c-0.99-0.16-1.96-0.4-2.9-0.72c-0.02-0.01-0.14-0.05-0.35-0.13l-0.34-0.15l-0.17-0.08
						l-0.09-0.03l-0.08-0.05c-0.19-0.11-0.3-0.17-0.32-0.18c-0.21-0.13-0.41-0.28-0.59-0.44c-0.04-0.04-0.08-0.09-0.12-0.13
						c-0.04-0.05-0.08-0.09-0.11-0.15c-0.03-0.04-0.06-0.1-0.08-0.15c-0.02-0.05-0.03-0.1-0.04-0.16
						C261.98,289,261.91,289,261.88,289z"/>
				</g>
			</g>
		</g>
		<g>
			<g>
				<path id="gXsvkhMps" fill="#444" d="M254.27,288.99c-0.35-0.05-0.69-0.19-0.97-0.41c-0.29-0.22-0.52-0.51-0.69-0.83
					c-0.16-0.32-0.29-0.67-0.36-1.03c-0.03-0.18-0.07-0.36-0.09-0.55c0-0.03-0.02-0.22-0.04-0.55c0.01,0.34,0.02,0.52,0.02,0.56
					c0.02,0.18,0.05,0.36,0.07,0.55c0.07,0.36,0.18,0.72,0.34,1.05c0.17,0.34,0.4,0.64,0.69,0.88c0.29,0.25,0.65,0.41,1.02,0.46
					C254.26,289.1,254.27,289.02,254.27,288.99z"/>
			</g>
			<g>
				<g>
					<path id="gXsvkhMps_1_" fill-opacity="0" stroke="#000000" stroke-opacity="0" d="M254.27,288.99
						c-0.35-0.05-0.69-0.19-0.97-0.41c-0.29-0.22-0.52-0.51-0.69-0.83c-0.16-0.32-0.29-0.67-0.36-1.03
						c-0.03-0.18-0.07-0.36-0.09-0.55c0-0.03-0.02-0.22-0.04-0.55c0.01,0.34,0.02,0.52,0.02,0.56c0.02,0.18,0.05,0.36,0.07,0.55
						c0.07,0.36,0.18,0.72,0.34,1.05c0.17,0.34,0.4,0.64,0.69,0.88c0.29,0.25,0.65,0.41,1.02,0.46
						C254.26,289.1,254.27,289.02,254.27,288.99z"/>
				</g>
			</g>
		</g>
		<g>
			<g>
				<path id="b61aZIlxY" fill="#444" d="M254.98,288.48c-0.26,0.2-0.54,0.37-0.85,0.49c-0.3,0.12-0.63,0.2-0.95,0.23
					c-0.17,0.01-0.33,0.01-0.5,0c-0.16-0.02-0.33-0.06-0.48-0.11c-0.32-0.1-0.62-0.25-0.89-0.44c0.26,0.2,0.56,0.36,0.87,0.48
					c0.16,0.05,0.33,0.09,0.5,0.12c0.16,0.02,0.33,0.02,0.5,0.02c0.34-0.02,0.67-0.09,0.99-0.21c0.32-0.11,0.62-0.27,0.9-0.47
					C255.05,288.57,255,288.5,254.98,288.48z"/>
			</g>
			<g>
				<g>
					<path id="b61aZIlxY_1_" fill-opacity="0" stroke="#000000" stroke-opacity="0" d="M254.98,288.48
						c-0.26,0.2-0.54,0.37-0.85,0.49c-0.3,0.12-0.63,0.2-0.95,0.23c-0.17,0.01-0.33,0.01-0.5,0c-0.16-0.02-0.33-0.06-0.48-0.11
						c-0.32-0.1-0.62-0.25-0.89-0.44c0.26,0.2,0.56,0.36,0.87,0.48c0.16,0.05,0.33,0.09,0.5,0.12c0.16,0.02,0.33,0.02,0.5,0.02
						c0.34-0.02,0.67-0.09,0.99-0.21c0.32-0.11,0.62-0.27,0.9-0.47C255.05,288.57,255,288.5,254.98,288.48z"/>
				</g>
			</g>
		</g>
		<g>
			<g>
				<path id="a8RIK5JK7" fill="#557ED6" d="M251.1,338.75c0-0.01,0.01-0.02,0.02-0.02c0.01,0,0.02,0.02,0.02,0.029
					s-0.01,0.02-0.02,0.02C251.1,338.779,251.1,338.76,251.1,338.75z"/>
			</g>
			<g>
				<g>
					<path id="a8RIK5JK7_1_" fill-opacity="0" stroke="#000000" stroke-opacity="0" d="M251.1,338.75c0-0.01,0.01-0.02,0.02-0.02
						c0.01,0,0.02,0.02,0.02,0.029s-0.01,0.02-0.02,0.02C251.1,338.779,251.1,338.76,251.1,338.75z"/>
				</g>
			</g>
		</g>
		<g>
			<g>
				<path id="b4dldC4bLu" fill="#557ED6" d="M252.58,340.41c0.38-0.721,0.76-1.561,1.4-2.1c0.02-0.021,0.06,0.01,0.03,0.029
					c-0.76,0.641-1.17,1.689-1.62,2.551c-0.35,0.68-0.72,1.52-1.36,1.989c-0.03,0.021-0.05-0.03-0.03-0.05
					C251.76,342.29,252.17,341.221,252.58,340.41z"/>
			</g>
			<g>
				<g>
					<path id="b4dldC4bLu_1_" fill-opacity="0" stroke="#000000" stroke-opacity="0" d="M252.58,340.41
						c0.38-0.721,0.76-1.561,1.4-2.1c0.02-0.021,0.06,0.01,0.03,0.029c-0.76,0.641-1.17,1.689-1.62,2.551
						c-0.35,0.68-0.72,1.52-1.36,1.989c-0.03,0.021-0.05-0.03-0.03-0.05C251.76,342.29,252.17,341.221,252.58,340.41z"/>
				</g>
			</g>
		</g>
		<g>
			<g>
				<path id="b1EM6wPdSN" fill="#557ED6" d="M253.38,375.66c-0.03,0.01-0.05-0.03-0.02-0.04c7.77-4.44,16.39-7.19,25.29-8.08
					c0.03,0,0.03,0.04,0,0.05C269.75,368.48,261.15,371.23,253.38,375.66z"/>
			</g>
			<g>
				<g>
					<path id="b1EM6wPdSN_1_" fill-opacity="0" stroke="#000000" stroke-opacity="0" d="M253.38,375.66
						c-0.03,0.01-0.05-0.03-0.02-0.04c7.77-4.44,16.39-7.19,25.29-8.08c0.03,0,0.03,0.04,0,0.05
						C269.75,368.48,261.15,371.23,253.38,375.66z"/>
				</g>
			</g>
		</g>
		<g>
			<g>
				<path id="jwaEy9zHy" fill="#557ED6" d="M268.53,319.23c-2.63,0.14-4.94-1.34-7.04-2.72c-0.03-0.02,0-0.06,0.02-0.04
					c2.04,1.33,4.25,2.76,6.79,2.71c2.49-0.04,4.7-1.79,6.2-3.64c0.02-0.03,0.06,0.01,0.04,0.03
					C273.08,317.38,270.93,319.09,268.53,319.23z"/>
			</g>
			<g>
				<g>
					<path id="jwaEy9zHy_1_" fill-opacity="0" stroke="#000000" stroke-opacity="0" d="M268.53,319.23
						c-2.63,0.14-4.94-1.34-7.04-2.72c-0.03-0.02,0-0.06,0.02-0.04c2.04,1.33,4.25,2.76,6.79,2.71c2.49-0.04,4.7-1.79,6.2-3.64
						c0.02-0.03,0.06,0.01,0.04,0.03C273.08,317.38,270.93,319.09,268.53,319.23z"/>
				</g>
			</g>
		</g>
		<g>
			<g>
				<path id="b1bPAuWZCC" fill="#557ED6" d="M243.02,337.77c-2.06-0.47-4.18-0.56-6.29-0.629c-0.03,0-0.03-0.051,0-0.051
					c2.27,0.08,4.57,0.18,6.78,0.74c1.67,0.42,3.33,1.12,4.36,2.55c0.02,0.03-0.03,0.06-0.05,0.03
					C246.7,338.85,244.83,338.17,243.02,337.77z"/>
			</g>
			<g>
				<g>
					<path id="b1bPAuWZCC_1_" fill-opacity="0" stroke="#000000" stroke-opacity="0" d="M243.02,337.77
						c-2.06-0.47-4.18-0.56-6.29-0.629c-0.03,0-0.03-0.051,0-0.051c2.27,0.08,4.57,0.18,6.78,0.74c1.67,0.42,3.33,1.12,4.36,2.55
						c0.02,0.03-0.03,0.06-0.05,0.03C246.7,338.85,244.83,338.17,243.02,337.77z"/>
				</g>
			</g>
		</g>
		<g>
			<g>
				<path id="c3Lnt4xU1d" fill="#079968" d="M164.56,355.029c-0.42-3.579-2.29-6.819-4.38-9.76c-1.27-1.779-3.37-3.699-5.34-2.77
					c-0.78,0.37-1.3,1.109-1.72,1.859c-3,5.311-2.2,11.841-1.83,17.931c0.26,4.181,0.28,8.46,1.68,12.41
					c0.47,1.329,1.11,2.63,2.14,3.579c1.03,0.951,2.5,1.511,3.86,1.171c3.08-0.771,3.83-4.96,3.9-7.62
					c0.07-2.971,0.29-5.52,0.9-8.49C164.33,360.609,164.89,357.811,164.56,355.029z"/>
			</g>
			<g>
				<g>
					<path id="c3Lnt4xU1d_1_" fill-opacity="0" stroke="#000000" stroke-opacity="0" d="M164.56,355.029
						c-0.42-3.579-2.29-6.819-4.38-9.76c-1.27-1.779-3.37-3.699-5.34-2.77c-0.78,0.37-1.3,1.109-1.72,1.859
						c-3,5.311-2.2,11.841-1.83,17.931c0.26,4.181,0.28,8.46,1.68,12.41c0.47,1.329,1.11,2.63,2.14,3.579
						c1.03,0.951,2.5,1.511,3.86,1.171c3.08-0.771,3.83-4.96,3.9-7.62c0.07-2.971,0.29-5.52,0.9-8.49
						C164.33,360.609,164.89,357.811,164.56,355.029z"/>
				</g>
			</g>
		</g>
		<g>
			<g>
				<path id="e4zh7CitR" fill="#07AE7B" d="M182.11,387.99c5.24-5.11,8.3-12.381,8.29-19.7c-0.01-8.81-4.24-17.2-4.36-26.011
					c-0.05-4.049,0.77-8.079,0.57-12.129c-0.21-4.051-1.68-8.36-5.12-10.5c-4.97-3.07-11.92,0-14.9,5.01
					c-2.98,5.02-2.97,11.23-2.43,17.04c0.53,5.81,1.15,11.68,0.08,17.42c-2.1,11.38-12.29,15.72-12.78,25.159
					c-0.53,10.23,8.18,10.841,8.28,14.461c0.11,4.119,0.3,9.529,2.11,13.23c2.54,5.189-4.03,7.34,0.96,1.539
					c3.35-3.91-3.6-9.46,0.17-14.18C165.61,396.04,179.09,390.93,182.11,387.99z"/>
			</g>
			<g>
				<g>
					<path id="e4zh7CitR_1_" fill-opacity="0" stroke="#000000" stroke-opacity="0" d="M182.11,387.99
						c5.24-5.11,8.3-12.381,8.29-19.7c-0.01-8.81-4.24-17.2-4.36-26.011c-0.05-4.049,0.77-8.079,0.57-12.129
						c-0.21-4.051-1.68-8.36-5.12-10.5c-4.97-3.07-11.92,0-14.9,5.01c-2.98,5.02-2.97,11.23-2.43,17.04
						c0.53,5.81,1.15,11.68,0.08,17.42c-2.1,11.38-12.29,15.72-12.78,25.159c-0.53,10.23,8.18,10.841,8.28,14.461
						c0.11,4.119,0.3,9.529,2.11,13.23c2.54,5.189-4.03,7.34,0.96,1.539c3.35-3.91-3.6-9.46,0.17-14.18
						C165.61,396.04,179.09,390.93,182.11,387.99z"/>
				</g>
			</g>
		</g>
		<g>
			<g>
				<path id="ebfwOM0sd" fill="#B2C3FB" d="M154.62,426.44c0.29,0.89,1.12,1.489,2.06,1.489c1.06,0,9.55,0,10.61,0
					c0.94,0,1.77-0.6,2.06-1.489c0.66-2.021,5.93-18.171,6.59-20.19c0.37-1.141-0.25-2.359-1.39-2.73
					c-0.22-0.069-0.45-0.109-0.67-0.109c-2.38,0-21.4,0-23.78,0c-1.2,0-2.17,0.97-2.18,2.16c0,0.229,0.04,0.459,0.11,0.68
					C149.35,410.29,153.96,424.42,154.62,426.44z"/>
			</g>
			<g>
				<g>
					<path id="ebfwOM0sd_1_" fill-opacity="0" stroke="#000000" stroke-opacity="0" d="M154.62,426.44
						c0.29,0.89,1.12,1.489,2.06,1.489c1.06,0,9.55,0,10.61,0c0.94,0,1.77-0.6,2.06-1.489c0.66-2.021,5.93-18.171,6.59-20.19
						c0.37-1.141-0.25-2.359-1.39-2.73c-0.22-0.069-0.45-0.109-0.67-0.109c-2.38,0-21.4,0-23.78,0c-1.2,0-2.17,0.97-2.18,2.16
						c0,0.229,0.04,0.459,0.11,0.68C149.35,410.29,153.96,424.42,154.62,426.44z"/>
				</g>
			</g>
		</g>
		<g>
			<g>
				<path id="b2kWCHG3H5" fill-opacity="0" d="M176.04,326.66c-1.5,7.311-3.2,10-2.47,16.26s1.81,13.311,1.15,18.13
					c-0.66,4.81-7.85,25.101-10.06,28.729c0,0-3.61,6.781-3.61,13.621"/>
			</g>
			<g>
				<g>
					<path id="b2kWCHG3H5_1_" fill-opacity="0" stroke="#000000" d="M176.04,326.66c-1.5,7.311-3.2,10-2.47,16.26
						s1.81,13.311,1.15,18.13c-0.66,4.81-7.85,25.101-10.06,28.729c0,0-3.61,6.781-3.61,13.621"/>
				</g>
			</g>
		</g>
		<g>
			<g>
				<path id="dQelKR1Ww" fill-opacity="0" d="M168.59,330.05c-0.25,1.851,0.34,4.86,1.84,6.36c0.94,0.93,1.94,1.79,3,2.57"/>
			</g>
			<g>
				<g>
					<path id="dQelKR1Ww_1_" fill-opacity="0" stroke="#000000" d="M168.59,330.05c-0.25,1.851,0.34,4.86,1.84,6.36
						c0.94,0.93,1.94,1.79,3,2.57"/>
				</g>
			</g>
		</g>
		<g>
			<g>
				<path id="b2x98khOEf" fill-opacity="0" d="M181.56,335.91c-1.59,2.26-3.6,6.34-7.99,7.02"/>
			</g>
			<g>
				<g>
					<path id="b2x98khOEf_1_" fill-opacity="0" stroke="#000000" d="M181.56,335.91c-1.59,2.26-3.6,6.34-7.99,7.02"/>
				</g>
			</g>
		</g>
		<g>
			<g>
				<path id="jijAmrNyw" fill-opacity="0" d="M174.44,350.221c0,0-4.84-0.421-7.1-6.111"/>
			</g>
			<g>
				<g>
					<path id="jijAmrNyw_1_" fill-opacity="0" stroke="#000000" d="M174.44,350.221c0,0-4.84-0.421-7.1-6.111"/>
				</g>
			</g>
		</g>
		<g>
			<g>
				<path id="aBn6iQzoz" fill-opacity="0" d="M175.03,355.65c3.15-0.91,6.61-3.51,7.12-6.44"/>
			</g>
			<g>
				<g>
					<path id="aBn6iQzoz_1_" fill-opacity="0" stroke="#000000" d="M175.03,355.65c3.15-0.91,6.61-3.51,7.12-6.44"/>
				</g>
			</g>
		</g>
		<g>
			<g>
				<path id="bsE5dXtlj" fill-opacity="0" d="M167.75,356.23c-0.41,4.68,5.61,6.14,6.56,6.789"/>
			</g>
			<g>
				<g>
					<path id="bsE5dXtlj_1_" fill-opacity="0" stroke="#000000" d="M167.75,356.23c-0.41,4.68,5.61,6.14,6.56,6.789"/>
				</g>
			</g>
		</g>
		<g>
			<g>
				<path id="b1dxq44cDH" fill-opacity="0" d="M172.54,369.1c0,0,7.51,0.11,8.68-4.49"/>
			</g>
			<g>
				<g>
					<path id="b1dxq44cDH_1_" fill-opacity="0" stroke="#000000" d="M172.54,369.1c0,0,7.51,0.11,8.68-4.49"/>
				</g>
			</g>
		</g>
		<g>
			<g>
				<path id="b2P6NB4XfC" fill-opacity="0" d="M165.41,367.029c0,0-0.64,4.791,4.87,8.801"/>
			</g>
			<g>
				<g>
					<path id="b2P6NB4XfC_1_" fill-opacity="0" stroke="#000000" d="M165.41,367.029c0,0-0.64,4.791,4.87,8.801"/>
				</g>
			</g>
		</g>
		<g>
			<g>
				<path id="b1GmTVggGR" fill-opacity="0" d="M168.54,380.641c0,0,8.42-1.221,10.93-5.58"/>
			</g>
			<g>
				<g>
					<path id="b1GmTVggGR_1_" fill-opacity="0" stroke="#000000" d="M168.54,380.641c0,0,8.42-1.221,10.93-5.58"/>
				</g>
			</g>
		</g>
		<g>
			<g>
				<path id="c8K8ZDcbO" fill-opacity="0" d="M161.06,375.83c0,0-0.49,9.09,4.94,11.189"/>
			</g>
			<g>
				<g>
					<path id="c8K8ZDcbO_1_" fill-opacity="0" stroke="#000000" d="M161.06,375.83c0,0-0.49,9.09,4.94,11.189"/>
				</g>
			</g>
		</g>
		<g>
			<g>
				<path id="aTZV4qman" fill-opacity="0" d="M156.26,342.93c1.5,3.01,2.65,4.85,1.99,10.881c-0.66,6.02-1.18,14.229,0.34,15.77"/>
			</g>
			<g>
				<g>
					<path id="aTZV4qman_1_" fill-opacity="0" stroke="#000000" d="M156.26,342.93c1.5,3.01,2.65,4.85,1.99,10.881
						c-0.66,6.02-1.18,14.229,0.34,15.77"/>
				</g>
			</g>
		</g>
		<g>
			<g>
				<path id="d30xJQuboQ" fill-opacity="0" d="M161.51,346.939c-0.15,2.761-0.34,6.36-3.26,6.86"/>
			</g>
			<g>
				<g>
					<path id="d30xJQuboQ_1_" fill-opacity="0" stroke="#000000" d="M161.51,346.939c-0.15,2.761-0.34,6.36-3.26,6.86"/>
				</g>
			</g>
		</g>
		<g>
			<g>
				<path id="bahO5pJ4Pu" fill-opacity="0" d="M153.49,351.13c0.51,2,0.31,6.92,4.34,7.22"/>
			</g>
			<g>
				<g>
					<path id="bahO5pJ4Pu_1_" fill-opacity="0" stroke="#000000" d="M153.49,351.13c0.51,2,0.31,6.92,4.34,7.22"/>
				</g>
			</g>
		</g>
		<g>
			<g>
				<path id="hT3zTsMen" fill-opacity="0" d="M162.11,359.58c-0.5,1-1.03,4.8-4.28,5.12"/>
			</g>
			<g>
				<g>
					<path id="hT3zTsMen_1_" fill-opacity="0" stroke="#000000" d="M162.11,359.58c-0.5,1-1.03,4.8-4.28,5.12"/>
				</g>
			</g>
		</g>
		<g>
			<g>
				<path id="mfxAVBNhh" fill="#e8e8e8" d="M333.52,216.76l0.971,32.34l36.81-1.1l-0.96-31.86l0,0L333.52,216.76z"/>
			</g>
			<g>
				<g>
					<path id="mfxAVBNhh_1_" fill-opacity="0" stroke="#000000" stroke-opacity="0" d="M333.52,216.76l0.971,32.34l36.81-1.1
						l-0.96-31.86l0,0L333.52,216.76z"/>
				</g>
			</g>
		</g>
		<g>
			<g>
				<path id="d4imJehjQU" fill="#EBEEF7" d="M350.91,210.86l13.609,8.16l0.32-0.53l-13.97-8.38l-11.18,8.63l0.38,0.49l0,0
					L350.91,210.86z"/>
			</g>
			<g>
				<g>
					<path id="d4imJehjQU_1_" fill-opacity="0" stroke="#000000" stroke-opacity="0" d="M350.91,210.86l13.609,8.16l0.32-0.53
						l-13.97-8.38l-11.18,8.63l0.38,0.49l0,0L350.91,210.86z"/>
				</g>
			</g>
		</g>
		<g>
			<g>
				<path id="b1rl2HeiY" fill="#EBEEF7" d="M352.69,210.34c0,0.04,0,0.08,0.01,0.11c0.01,0.17,0.01,0.15,0-0.07
					c0.28,0.94-0.5,1.92-1.46,1.92c-1,0-1.681-0.96-1.46-1.92c-0.08,0.36-0.021,0.08-0.021-0.04c0.01-0.11,0.01-0.21,0.021-0.32
					c0.029-0.75,0.64-1.48,1.439-1.44c0.84,0.04,1.36,0.64,1.44,1.44C352.67,210.13,352.68,210.23,352.69,210.34z"/>
			</g>
			<g>
				<g>
					<path id="b1rl2HeiY_1_" fill-opacity="0" stroke="#000000" stroke-opacity="0" d="M352.69,210.34c0,0.04,0,0.08,0.01,0.11
						c0.01,0.17,0.01,0.15,0-0.07c0.28,0.94-0.5,1.92-1.46,1.92c-1,0-1.681-0.96-1.46-1.92c-0.08,0.36-0.021,0.08-0.021-0.04
						c0.01-0.11,0.01-0.21,0.021-0.32c0.029-0.75,0.64-1.48,1.439-1.44c0.84,0.04,1.36,0.64,1.44,1.44
						C352.67,210.13,352.68,210.23,352.69,210.34z"/>
				</g>
			</g>
		</g>
		<g>
			<g>
				<path id="e2IRhGBnqL" fill="#e8e8e8" d="M338.1,219.15l-0.649,25.72l29.27,0.74l0.641-25.34l0,0L338.1,219.15z"/>
			</g>
			<g>
				<g>
					<path id="e2IRhGBnqL_1_" fill-opacity="0" stroke="#000000" stroke-opacity="0" d="M338.1,219.15l-0.649,25.72l29.27,0.74
						l0.641-25.34l0,0L338.1,219.15z"/>
				</g>
			</g>
		</g>
		<g>
			<g>
				<path id="a42RUKf5eP" fill="#e8e8e8" d="M359.93,228.47l-7.66,8.65l-7.229-6.38l-8.86,6.38v9.64h32.04l0.761-8.02l-2.051-1.62
					l0,0L359.93,228.47z"/>
			</g>
			<g>
				<g>
					<path id="a42RUKf5eP_1_" fill-opacity="0" stroke="#000000" stroke-opacity="0" d="M359.93,228.47l-7.66,8.65l-7.229-6.38
						l-8.86,6.38v9.64h32.04l0.761-8.02l-2.051-1.62l0,0L359.93,228.47z"/>
				</g>
			</g>
		</g>
		<g>
			<g>
				<path id="d5rBgujnDO" fill="#FFFFFF" d="M359.93,228.48c-2.91,3.28-4.529,5.11-4.85,5.47c0,0,2.1,2.74,3.689,0
					c0,0,0.99,3.46,2.41,0c0,0,1.08,2.27,3.471,0.36C364.02,233.53,362.45,231.59,359.93,228.48z"/>
			</g>
			<g>
				<g>
					<path id="d5rBgujnDO_1_" fill-opacity="0" stroke="#000000" stroke-opacity="0" d="M359.93,228.48
						c-2.91,3.28-4.529,5.11-4.85,5.47c0,0,2.1,2.74,3.689,0c0,0,0.99,3.46,2.41,0c0,0,1.08,2.27,3.471,0.36
						C364.02,233.53,362.45,231.59,359.93,228.48z"/>
				</g>
			</g>
		</g>
		<g>
			<g>
				<path id="bFj7XSkH1" fill="#FFFFFF" d="M345.04,230.74c-2.68,1.92-4.16,3-4.46,3.21c0,0,2.2,2.25,4.27-0.66
					c0,0,0.051,1.21,1.24,1.47c1.19,0.25,3.03-0.42,3.03-0.42C348.58,233.86,347.22,232.66,345.04,230.74z"/>
			</g>
			<g>
				<g>
					<path id="bFj7XSkH1_1_" fill-opacity="0" stroke="#000000" stroke-opacity="0" d="M345.04,230.74c-2.68,1.92-4.16,3-4.46,3.21
						c0,0,2.2,2.25,4.27-0.66c0,0,0.051,1.21,1.24,1.47c1.19,0.25,3.03-0.42,3.03-0.42C348.58,233.86,347.22,232.66,345.04,230.74z"
						/>
				</g>
			</g>
		</g>
		<g>
			<g>
				<path id="c1HJnHOzwt" fill="#0F4C72" d="M513.14,393.48c1-0.9-0.76-5.65-1.34-6.201C512.5,389.27,513.44,390.65,513.14,393.48z"
					/>
			</g>
			<g>
				<g>
					<path id="c1HJnHOzwt_1_" fill-opacity="0" stroke="#000000" stroke-opacity="0" d="M513.14,393.48c1-0.9-0.76-5.65-1.34-6.201
						C512.5,389.27,513.44,390.65,513.14,393.48z"/>
				</g>
			</g>
		</g>
	</g>
</g>
</svg>
