<?xml version="1.0" encoding="utf-8"?>
<!-- Generator: Adobe Illustrator 23.1.0, SVG Export Plug-In . SVG Version: 6.00 Build 0)  -->
<svg version="1.1" id="Calque_1" xmlns="http://www.w3.org/2000/svg" xmlns:xlink="http://www.w3.org/1999/xlink" x="0px" y="0px"
	 viewBox="0 0 38 39" style="enable-background:new 0 0 38 39;" xml:space="preserve">
<style type="text/css">
	.st0{fill:#FFFFFF;stroke:#000000;stroke-miterlimit:10;}
	.st1{fill:#002C3A;}
	.st2{fill:none;stroke:#0000B2;stroke-miterlimit:10;}
</style>
<path class="st0" d="M-7.5,67.5"/>
<path class="st1" d="M27,25c0.81-0.1,4.68-0.68,7.36-4.11c3.25-4.17,2.07-9.09,2.06-9.13c-0.04-0.14-0.07-0.24-0.09-0.31
	c0,0-1.29-4.36-6.83-7.94C25.4,0.85,14.66-0.67,1,2c0,12,0,24,0,36c3.83-4.5,7.67-9,11.5-13.5c3.5,4.5,7,9,10.5,13.5
	c4.67,0,9.33,0,14,0C33.67,33.67,30.33,29.33,27,25z M20,15c-5.33,6.67-5.33,6.67-8,10c0.17-4.5,0.33-9,0.5-13.5c3.33,0,6.67,0,10,0
	c0.6,0.18,3.49,1.09,5,4c1.45,2.79,1.05,6.3-1,9C24.33,21.33,22.17,18.17,20,15z"/>
<path class="st2" d="M-89.5,65.5"/>
</svg>
